#N canvas 1 22 1279 706 10;
#X obj 161 129 vsl 15 88 0.1 3000 0 0 \$0-adsr-decay empty D 4 -9 0
10 -262144 -1 -1 3400 1;
#X obj 193 129 vsl 15 88 0.1 1 1 0 \$0-adsr-sustain empty S 4 -9 0
10 -262144 -1 -1 1100 1;
#X obj 225 129 vsl 15 88 0.2 5000 0 0 \$0-adsr-release empty R 4 -9
0 10 -262144 -1 -1 600 1;
#X obj 132 129 vsl 15 88 0.2 3000 0 0 \$0-adsr-attack empty A 4 -9
0 10 -262144 -1 -1 500 1;
#X obj 26 62 / 1000;
#X floatatom 123 222 4 0 0 0 - - -, f 4;
#X obj 23 206 / 1000;
#X floatatom 155 222 4 0 0 0 - - -, f 4;
#X floatatom 187 222 4 0 0 0 - - -, f 4;
#X obj 188 52 / 1000;
#X floatatom 219 222 4 0 0 0 - - -, f 4;
#X obj 813 244 sel 0;
#X obj 845 267 t f f;
#X text 827 227 (\$1);
#X text 899 355 (\$2);
#X text 942 393 (\$3);
#X text 918 427 (\$4);
#X obj 129 519 +;
#X obj 601 526 vline~;
#X obj 581 557 *~;
#X obj 569 386 sel 0;
#X obj 601 431 pack f f f;
#X msg 601 453 0 \$2 \$3;
#X obj 845 466 pack f f f f;
#X obj 158 15 bng 15 250 50 0 empty empty empty 17 7 0 10 -262144 -1
-1;
#X text 50 451 Calculation of relase delay. Release should start right
after attack + decay;
#X text 80 262 Controls for ADSR. The values are converted from miliseconds
to seconds for the GUI;
#X text 721 425 (\$3);
#X text 626 358 RELEASE;
#X text 860 329 ATTACK \, DECAY & SUSTAIN;
#X msg 845 488 \$1 \$2 0 \, \$3 \$4 \$2;
#X obj 26 40 r \$0-adsr-attack;
#X obj 187 -1 r \$0-adsr-sustain;
#X obj 23 174 r \$0-adsr-decay;
#X obj 28 485 r \$0-adsr-attack;
#X obj 147 486 r \$0-adsr-decay;
#X obj 129 543 s \$0-adsr-release_delay;
#X obj 634 384 r \$0-adsr-release;
#X obj 668 408 r \$0-adsr-release_delay;
#X obj 872 371 r \$0-adsr-attack;
#X obj 233 583 r \$0-adsr-sustain;
#X obj 926 443 r \$0-adsr-decay;
#X obj 188 31 r \$0-adsr-release;
#X obj 582 657 outlet~;
#X obj 300 32 inlet~;
#X obj 493 28 inlet;
#X obj 512 346 inlet;
#X obj 493 50 unpack f f;
#X obj 560 80 s 0$-adsr-amp;
#X obj 493 102 s 0$-adsr-freq;
#X obj 546 227 t b f f;
#X obj 546 204 r 0$-adsr-freq;
#X obj 300 54 s~ \$0-adsr-signal;
#X obj 491 526 r~ \$0-adsr-signal;
#X msg 512 369 1;
#X obj 130 574 r \$0-adsr-amp;
#X obj 209 624 *;
#X obj 209 646 s \$0-scaled-sustain;
#X obj 899 408 r \$0-scaled-sustain;
#X floatatom 184 681 5 0 0 0 - - -, f 5;
#X msg 552 157 1;
#X text 488 10 (f \, a);
#X text 512 327 bang;
#X text 300 16 signal;
#X obj 796 648 outlet;
#X obj 798 582 r 0$-adsr-freq;
#X obj 821 562 r 0$-adsr-amp;
#X obj 798 614 pack;
#N canvas 0 50 450 250 (subpatch) 0;
#X array \$0-adsr 40 float 1;
#A 0 0.882844 0.821951 0.661127 0.468138 0.307315 0.133794 0.133794
0.133794 0.133794 0.133794 0.133794 0.133794 0.133794 0.133794 0.133794
0.133794 0.133794 0.133794 0.133794 0.133794 0.133794 0.133794 0.133794
0.133794 0.133794 0.133794 0.133794 0.133794 0.133794 0.133794 0.133794
0.133794 0.133794 0.133794 0.133794 0.133794 0.118712 0 0 0;
#X coords 0 1 39 0 120 120 1 0 0;
#X restore 251 108 graph;
#X floatatom 85 551 5 0 0 0 - - -, f 5;
#X floatatom 168 508 5 0 0 0 - - -, f 5;
#X floatatom 28 507 5 0 0 0 - - -, f 5;
#N canvas 168 22 790 752 plot_adsr_graph 0;
#X obj 604 23 r \$0-adsr-release;
#X obj 308 23 r \$0-adsr-sustain;
#X obj 48 23 r \$0-adsr-attack;
#X obj 150 23 r \$0-adsr-decay;
#X obj 313 560 vline~;
#X obj 147 463 pack f f;
#X obj 162 438 swap;
#X msg 589 464 0 \$1;
#X msg 60 462 1 \$1;
#X obj 48 81 t f f f;
#X obj 150 77 t f f f;
#X obj 464 151 +;
#X obj 426 190 +;
#X obj 426 212 t b f;
#X obj 426 256 -;
#X floatatom 426 278 5 0 0 0 - - -, f 5;
#X obj 515 134 t b f;
#X obj 464 173 t b f;
#X obj 308 67 t f f;
#X obj 135 278 f;
#X obj 589 389 f;
#X obj 293 333 f;
#X obj 33 222 f;
#X obj 80 261 del;
#X obj 192 316 del;
#X obj 511 372 del;
#X obj 604 77 t f f;
#X obj 320 464 pack f f;
#X obj 426 297 t f f;
#X obj 33 244 t b f;
#X obj 135 299 t b f;
#X obj 293 355 t b f;
#X obj 381 84 s \$0-sus-val;
#X obj 183 398 r \$0-sus-val;
#X obj 26 122 bng 15 250 50 0 \$0-plt-bang empty empty 17 7 0 10 -262144
-1 -1;
#X obj 491 544 tgl 15 0 empty empty empty 17 7 0 10 -262144 -1 -1 1
1;
#X obj 313 582 snapshot~;
#X floatatom 313 604 5 0 0 0 - - -, f 5;
#X floatatom 629 100 5 0 0 0 - - -, f 5;
#X obj 313 623 t f b;
#X floatatom 452 701 5 0 0 0 - - -, f 5;
#X obj 403 639 spigot;
#X obj 434 618 tgl 15 0 empty empty empty 17 7 0 10 -262144 -1 -1 0
1;
#X obj 541 639 bng 15 250 50 0 empty empty empty 17 7 0 10 -262144
-1 -1;
#X msg 541 659 0, f 1;
#X obj 568 590 r \$0-plt-bang;
#X msg 572 614 1, f 1;
#X obj 10 13 inlet;
#X obj 48 59 / 30;
#X obj 150 55 / 30;
#X obj 604 55 / 50;
#X obj 402 663 cyclone/counter 40;
#X obj 491 566 metro 8;
#X msg 426 234 300;
#X obj 286 696 tabwrite \$0-adsr;
#X obj 490 501 loadbang;
#X msg 490 523 1;
#X connect 0 0 50 0;
#X connect 1 0 18 0;
#X connect 2 0 48 0;
#X connect 3 0 49 0;
#X connect 4 0 36 0;
#X connect 5 0 4 0;
#X connect 6 0 5 0;
#X connect 6 1 5 1;
#X connect 7 0 4 0;
#X connect 8 0 4 0;
#X connect 9 0 22 1;
#X connect 9 1 23 1;
#X connect 9 2 12 0;
#X connect 10 0 19 1;
#X connect 10 1 24 1;
#X connect 10 2 11 0;
#X connect 11 0 17 0;
#X connect 12 0 13 0;
#X connect 13 0 53 0;
#X connect 13 1 14 1;
#X connect 14 0 15 0;
#X connect 15 0 28 0;
#X connect 16 0 11 0;
#X connect 16 1 11 1;
#X connect 17 0 12 0;
#X connect 17 1 12 1;
#X connect 18 0 21 1;
#X connect 18 1 32 0;
#X connect 19 0 30 0;
#X connect 20 0 7 0;
#X connect 21 0 31 0;
#X connect 22 0 29 0;
#X connect 23 0 19 0;
#X connect 24 0 21 0;
#X connect 25 0 20 0;
#X connect 26 0 20 1;
#X connect 26 0 38 0;
#X connect 26 1 16 0;
#X connect 27 0 4 0;
#X connect 28 0 27 1;
#X connect 28 1 25 1;
#X connect 29 0 23 0;
#X connect 29 1 8 0;
#X connect 30 0 24 0;
#X connect 30 1 6 0;
#X connect 31 0 25 0;
#X connect 31 1 27 0;
#X connect 33 0 6 1;
#X connect 34 0 22 0;
#X connect 35 0 52 0;
#X connect 36 0 37 0;
#X connect 37 0 39 0;
#X connect 39 0 54 0;
#X connect 39 1 41 0;
#X connect 41 0 51 0;
#X connect 42 0 41 1;
#X connect 43 0 44 0;
#X connect 44 0 42 0;
#X connect 45 0 46 0;
#X connect 46 0 42 0;
#X connect 47 0 34 0;
#X connect 48 0 9 0;
#X connect 49 0 10 0;
#X connect 50 0 26 0;
#X connect 51 0 40 0;
#X connect 51 0 54 1;
#X connect 51 3 43 0;
#X connect 52 0 36 0;
#X connect 53 0 14 0;
#X connect 55 0 56 0;
#X connect 56 0 35 0;
#X restore 309 357 pd plot_adsr_graph;
#X obj 309 315 bng 15 250 50 0 empty empty empty 17 7 0 10 -262144
-1 -1;
#X obj 353 91 tgl 15 0 empty empty Plot -32 8 0 8 -262144 -1 -1 1 1
;
#X obj 319 295 metro 800;
#X text 351 234 f/a;
#X text 122 234 ~;
#X text 121 76 ~;
#X text 236 75 f/a;
#X text 363 75 b;
#X obj 152 81 tgl 22 0 \$0-adsr-onoff empty On/Off 1 10 0 6 -258113
-1 -262144 1 1;
#X obj 184 81 tgl 22 0 \$0-adsr-bypass empty Bypass 1 10 0 6 -4034
-1 -1 1 1;
#X obj 430 635 zexy/multiplex~;
#X obj 430 605 tgl 15 0 empty \$0-adsr-onoff empty 17 7 0 10 -262144
-1 -1 1 1;
#X obj 673 475 tgl 15 0 empty \$0-adsr-bypass empty 17 7 0 10 -262144
-1 -1 1 1;
#X obj 516 577 abs/drywet~;
#X obj 663 541 -;
#X msg 663 522 1;
#X floatatom 663 563 5 0 0 0 - - -, f 5;
#X obj 665 503 t b f;
#X text 703 527 Bypass;
#X connect 4 0 5 0;
#X connect 6 0 7 0;
#X connect 9 0 10 0;
#X connect 11 1 12 0;
#X connect 12 0 23 0;
#X connect 17 0 36 0;
#X connect 17 0 69 0;
#X connect 18 0 19 1;
#X connect 19 0 86 1;
#X connect 20 1 21 0;
#X connect 21 0 22 0;
#X connect 22 0 18 0;
#X connect 23 0 30 0;
#X connect 24 0 3 0;
#X connect 24 0 0 0;
#X connect 24 0 1 0;
#X connect 24 0 2 0;
#X connect 30 0 18 0;
#X connect 31 0 4 0;
#X connect 32 0 8 0;
#X connect 33 0 6 0;
#X connect 34 0 17 0;
#X connect 34 0 71 0;
#X connect 35 0 70 0;
#X connect 35 0 17 0;
#X connect 37 0 21 1;
#X connect 38 0 21 2;
#X connect 39 0 23 1;
#X connect 40 0 56 0;
#X connect 41 0 23 3;
#X connect 42 0 9 0;
#X connect 44 0 52 0;
#X connect 45 0 47 0;
#X connect 46 0 54 0;
#X connect 47 0 49 0;
#X connect 47 1 48 0;
#X connect 50 0 24 0;
#X connect 50 1 20 0;
#X connect 50 2 11 0;
#X connect 51 0 50 0;
#X connect 53 0 19 0;
#X connect 53 0 86 0;
#X connect 54 0 20 0;
#X connect 55 0 56 0;
#X connect 56 0 57 0;
#X connect 56 0 59 0;
#X connect 58 0 23 2;
#X connect 60 0 50 0;
#X connect 65 0 67 0;
#X connect 66 0 67 1;
#X connect 67 0 64 0;
#X connect 73 0 72 0;
#X connect 74 0 75 0;
#X connect 75 0 73 0;
#X connect 83 0 43 0;
#X connect 84 0 83 0;
#X connect 85 0 90 0;
#X connect 86 0 83 1;
#X connect 87 0 89 0;
#X connect 88 0 87 0;
#X connect 89 0 86 2;
#X connect 90 0 88 0;
#X connect 90 1 87 1;
#X coords 0 -1 1 1 255 176 2 120 75;
