#N canvas 0 93 1366 675 10;
#X obj 141 119 vsl 15 128 0.1 3000 0 0 \$0-adsr-decay empty D 4 -9
0 10 -262144 -1 -1 0 1;
#X obj 173 119 vsl 15 128 0.1 1 1 0 \$0-adsr-sustain empty S 4 -9 0
10 -262144 -1 -1 0 1;
#X obj 205 119 vsl 15 128 0.2 5000 0 0 \$0-adsr-release empty R 4 -9
0 10 -262144 -1 -1 0 1;
#X obj 112 119 vsl 15 128 0.2 3000 0 0 \$0-adsr-attack empty A 4 -9
0 10 -262144 -1 -1 0 1;
#X obj 12 93 / 1000;
#X floatatom 103 252 4 0 0 0 - - -, f 4;
#X obj 135 364 / 1000;
#X floatatom 135 252 4 0 0 0 - - -, f 4;
#X floatatom 167 252 4 0 0 0 - - -, f 4;
#X obj 258 235 / 1000;
#X floatatom 199 252 4 0 0 0 - - -, f 4;
#X obj 1016 60 sel 0;
#X obj 1048 83 t f f;
#X text 1030 43 (\$1);
#X text 1102 171 (\$2);
#X text 1139 208 (\$3);
#X text 1121 243 (\$4);
#X obj 109 479 +;
#X obj 804 342 vline~;
#X obj 785 403 *~;
#X obj 785 457 dac~;
#X floatatom 1016 25 2 0 0 0 - - -, f 2;
#X msg 1232 36 \; pd dsp 0;
#X msg 1232 79 \; pd dsp 1;
#X obj 772 202 sel 0;
#X obj 804 247 pack f f f;
#X msg 804 269 0 \$2 \$3;
#X obj 1048 282 pack f f f f;
#X obj 135 69 bng 15 250 50 0 empty empty empty 17 7 0 10 -262144 -1
-1;
#X obj 497 269 inlet;
#X text 486 255 Amplitude;
#X obj 574 269 inlet;
#X text 30 411 Calculation of relase delay. Release should start right
after attack + decay;
#X text 237 133 Controls for ADSR. The values are converted from miliseconds
to seconds for the GUI;
#X text 924 241 (\$3);
#X text 829 174 RELEASE;
#X text 1063 145 ATTACK \, DECAY & SUSTAIN;
#X text 560 254 Frequency;
#X obj 723 386 osc~;
#X floatatom 723 365 5 0 0 0 - - -, f 5;
#X msg 1048 304 \$1 \$2 0 \, \$3 \$4 \$2;
#X msg 737 34 1;
#X obj 12 71 r \$0-adsr-attack;
#X obj 165 305 r \$0-adsr-sustain;
#X obj 135 342 r \$0-adsr-decay;
#X obj 8 445 r \$0-adsr-attack;
#X obj 127 446 r \$0-adsr-decay;
#X obj 109 503 s \$0-adsr-release_delay;
#X obj 574 295 s \$0-adsr-freq;
#X obj 497 321 s \$0-adsr-amp;
#X obj 837 200 r \$0-adsr-release;
#X obj 871 224 r \$0-adsr-release_delay;
#X obj 1075 187 r \$0-adsr-attack;
#X obj 1102 224 r \$0-adsr-sustain;
#X obj 1129 259 r \$0-adsr-decay;
#X obj 257 214 r \$0-adsr-release;
#X connect 4 0 5 0;
#X connect 6 0 7 0;
#X connect 9 0 10 0;
#X connect 11 1 12 0;
#X connect 12 0 27 0;
#X connect 17 0 47 0;
#X connect 18 0 19 1;
#X connect 19 0 20 0;
#X connect 19 0 20 1;
#X connect 21 0 11 0;
#X connect 24 1 25 0;
#X connect 25 0 26 0;
#X connect 26 0 18 0;
#X connect 27 0 40 0;
#X connect 28 0 3 0;
#X connect 28 0 0 0;
#X connect 28 0 1 0;
#X connect 28 0 2 0;
#X connect 29 0 49 0;
#X connect 31 0 48 0;
#X connect 38 0 19 0;
#X connect 39 0 38 0;
#X connect 40 0 18 0;
#X connect 41 0 21 0;
#X connect 41 0 28 0;
#X connect 41 0 24 0;
#X connect 42 0 4 0;
#X connect 43 0 8 0;
#X connect 44 0 6 0;
#X connect 45 0 17 0;
#X connect 46 0 17 1;
#X connect 50 0 25 1;
#X connect 51 0 25 2;
#X connect 52 0 27 1;
#X connect 53 0 27 2;
#X connect 54 0 27 3;
#X connect 55 0 9 0;
#X coords 0 -1 1 1 132 171 2 100 100;
