#N canvas 0 93 1366 675 10;
#X obj 449 55 inlet;
#X text 490 55 Amplitude;
#X obj 449 160 sel 0;
#X obj 481 189 t f f;
#X obj 574 574 vline~;
#X text 622 576 O [vline~] centraliza todo o envelope;
#X obj 574 596 outlet~;
#X obj 504 249 r attack;
#X obj 546 179 r sustain;
#X obj 552 286 r decay;
#X obj 528 206 *;
#X obj 481 348 pack f f f f f;
#X obj 576 323 r attack;
#X msg 481 370 \$1 \$2 \, \$3 \$4 \$5;
#X text 555 208 Normalizacao do sustain;
#X text 536 140 ATTACK \, DECAY \, SUSTAIN;
#X text 896 48 RELEASE;
#X text 453 142 (\$1);
#X text 501 232 (\$2);
#X text 544 162 (\$3);
#X text 563 269 (\$4);
#X text 594 307 (\$5);
#X obj 747 139 > 0;
#X obj 747 161 sel 1 0;
#X obj 747 201 t b b;
#X obj 846 193 r attack;
#X obj 828 218 f;
#X obj 828 257 +;
#X obj 846 237 r decay;
#X obj 747 273 timer;
#X obj 747 305 expr $f2-$f1;
#X obj 747 327 t f f;
#X obj 747 349 >= 0;
#X obj 747 371 sel 0 1;
#X obj 747 446 f;
#X msg 747 468 0 \$1;
#X obj 911 333 min;
#X obj 911 355 min;
#X obj 929 289 r decay;
#X obj 878 443 f;
#X obj 878 465 pack f f f;
#X obj 955 332 r release;
#X obj 970 408 *;
#X obj 449 85 s amplitude;
#X obj 449 120 r amplitude;
#X obj 747 93 r amplitude;
#X obj 970 369 r amplitude;
#X obj 1019 391 r sustain;
#X obj 945 439 r release;
#X msg 878 487 \$1 \$2 \, 0 \$3 \$2;
#X obj 107 116 flatgui/knob 32 32 1 10000 1 0 empty empty A 0 -8 0
8 -1.22442e+09 21923 -1.22434e+09 400 1;
#X obj 144 116 flatgui/knob 32 32 1 10000 1 0 empty empty D 0 -8 0
8 -1.22442e+09 21923 -1.22434e+09 1000 1;
#X obj 218 115 flatgui/knob 32 32 1 30000 1 0 empty empty R 0 -8 0
8 -1.22442e+09 21923 -1.22434e+09 500 1;
#X obj 181 116 flatgui/knob 32 32 0 1 0 0 empty empty S 0 -8 0 8 -1.22442e+09
21923 -1.22434e+09 700 1;
#X obj 107 280 s attack;
#X obj 218 210 s release;
#X obj 181 235 s sustain;
#X obj 144 257 s decay;
#X floatatom 379 271 5 0 0 0 - - -, f 5;
#X connect 0 0 43 0;
#X connect 2 1 3 0;
#X connect 3 0 11 0;
#X connect 3 1 10 0;
#X connect 4 0 6 0;
#X connect 7 0 11 1;
#X connect 8 0 10 1;
#X connect 9 0 11 3;
#X connect 10 0 11 2;
#X connect 11 0 13 0;
#X connect 12 0 11 4;
#X connect 13 0 4 0;
#X connect 22 0 23 0;
#X connect 23 0 24 0;
#X connect 23 1 29 1;
#X connect 24 0 29 0;
#X connect 24 1 26 0;
#X connect 25 0 26 1;
#X connect 26 0 27 0;
#X connect 27 0 30 1;
#X connect 28 0 27 1;
#X connect 29 0 30 0;
#X connect 30 0 31 0;
#X connect 31 0 32 0;
#X connect 31 1 36 0;
#X connect 32 0 33 0;
#X connect 33 0 34 0;
#X connect 33 1 39 0;
#X connect 34 0 35 0;
#X connect 35 0 4 0;
#X connect 36 0 37 0;
#X connect 37 0 40 1;
#X connect 38 0 36 1;
#X connect 39 0 40 0;
#X connect 40 0 49 0;
#X connect 41 0 37 1;
#X connect 42 0 39 1;
#X connect 44 0 2 0;
#X connect 44 0 58 0;
#X connect 45 0 22 0;
#X connect 46 0 42 0;
#X connect 47 0 42 1;
#X connect 48 0 40 2;
#X connect 49 0 4 0;
#X connect 50 0 54 0;
#X connect 51 0 57 0;
#X connect 52 0 55 0;
#X connect 53 0 56 0;
#X coords 0 -1 1 1 155 55 2 100 100;
