#N canvas 561 106 747 642 10;
#X obj 141 119 vsl 15 128 0.1 3000 0 0 decay empty D 0 -9 0 10 -262144
-1 -1 5800 1;
#X obj 173 119 vsl 15 128 0.1 1 1 0 sustain empty S 0 -9 0 10 -262144
-1 -1 1400 1;
#X obj 205 119 vsl 15 128 0.1 5000 0 0 release empty R 0 -9 0 10 -262144
-1 -1 1600 1;
#X obj 112 119 vsl 15 128 0.1 3000 0 0 attack empty A 0 -9 0 10 -262144
-1 -1 900 1;
#X obj 38 115 r attack;
#X obj 38 137 / 1000;
#X floatatom 103 252 4 0 0 0 - - -, f 4;
#X obj 135 342 r decay;
#X obj 135 364 / 1000;
#X floatatom 135 252 4 0 0 0 - - -, f 4;
#X obj 165 305 r sustain;
#X floatatom 167 252 4 0 0 0 - - -, f 4;
#X obj 257 214 r release;
#X obj 258 235 / 1000;
#X floatatom 199 252 4 0 0 0 - - -, f 4;
#X obj 986 60 sel 0;
#X obj 1018 83 t f f;
#X obj 1045 187 r attack;
#X text 1000 43 (\$1);
#X text 1072 171 (\$2);
#X obj 1072 224 r sustain;
#X text 1109 208 (\$3);
#X obj 1099 259 r decay;
#X text 1121 243 (\$4);
#X obj 871 224 r release_delay;
#X obj 109 503 s release_delay;
#X obj 127 446 r decay;
#X obj 109 479 +;
#X obj 854 342 vline~;
#X obj 813 495 *~;
#X obj 813 549 dac~;
#X msg 716 8 1;
#X floatatom 986 25 2 0 0 0 - - -, f 2;
#X msg 1232 36 \; pd dsp 0;
#X msg 1232 79 \; pd dsp 1;
#X msg 1018 304 1 \$2 0 \, \$3 \$4 \$2;
#X obj 772 202 sel 0;
#X obj 804 247 pack f f f;
#X msg 804 269 0 \$2 \$3;
#X obj 837 203 r release;
#X obj 1018 282 pack f f f f;
#X obj 135 69 bng 15 250 50 0 empty empty empty 17 7 0 10 -262144 -1
-1;
#X obj 64 26 inlet;
#X text 53 12 Amplitude;
#X obj 143 30 inlet;
#X obj 64 446 r attack;
#X text 30 411 Calculation of relase delay. Release should start right
after attack + decay;
#X text 237 133 Controls for ADSR. The values are converted from miliseconds
to seconds for the GUI;
#X text 927 207 (\$3);
#X text 829 174 RELEASE;
#X text 1033 145 ATTACK \, DECAY & SUSTAIN;
#X text 129 13 Frequency;
#X obj 693 443 osc~;
#X floatatom 698 407 5 0 0 0 - - -, f 5;
#X connect 4 0 5 0;
#X connect 5 0 6 0;
#X connect 7 0 8 0;
#X connect 8 0 9 0;
#X connect 10 0 11 0;
#X connect 12 0 13 0;
#X connect 13 0 14 0;
#X connect 15 1 16 0;
#X connect 16 0 40 0;
#X connect 17 0 40 1;
#X connect 20 0 40 2;
#X connect 22 0 40 3;
#X connect 24 0 37 2;
#X connect 26 0 27 1;
#X connect 27 0 25 0;
#X connect 28 0 29 1;
#X connect 29 0 30 0;
#X connect 29 0 30 1;
#X connect 31 0 32 0;
#X connect 31 0 41 0;
#X connect 31 0 36 0;
#X connect 32 0 15 0;
#X connect 35 0 28 0;
#X connect 36 1 37 0;
#X connect 37 0 38 0;
#X connect 38 0 28 0;
#X connect 39 0 37 1;
#X connect 40 0 35 0;
#X connect 41 0 3 0;
#X connect 41 0 0 0;
#X connect 41 0 1 0;
#X connect 41 0 2 0;
#X connect 45 0 27 0;
#X connect 52 0 29 0;
#X connect 53 0 52 0;
#X coords 0 -1 1 1 132 171 2 100 100;
