#N canvas 530 162 745 582 10;
#X obj 112 172 abs/midi_reader;
#X text 192 107 === CONTROL ===;
#X obj 178 475 pack f f;
#X obj 178 497 outlet;
#X obj 265 497 outlet;
#X text 179 516 (f \, a);
#X text 272 517 bang;
#X obj 115 131 vradio 15 1 0 2 empty empty empty 0 -8 0 10 -262144
-1 -1 0;
#X text 133 131 MIDI reader;
#X text 133 146 Theremin Canvas;
#X connect 2 0 3 0;
#X coords 0 -1 1 1 300 300 2 100 100;
