#N canvas 110 93 940 614 10;
#X obj 112 172 abs/midi_reader;
#X text 192 107 === CONTROL ===;
#X obj 102 424 outlet;
#X obj 351 404 outlet;
#X text 100 383 (f \, a);
#X text 367 383 bang;
#X obj 115 131 vradio 15 1 0 2 \$0-control-selector empty empty 0 -8
0 10 -262144 -1 -1 1;
#X text 133 131 MIDI reader;
#X text 133 146 Theremin Canvas;
#X obj 485 125 r \$0-control-selector;
#X text 448 156 Operate with MIDI;
#X obj 730 125 r \$0-control-selector;
#X text 729 156 Operate with Theremin Canvas;
#X obj 658 142 sel 0;
#X obj 658 165 bng 15 250 50 0 empty empty empty 17 7 0 10 -262144
-1 -1;
#X obj 690 165 bng 15 250 50 0 empty empty empty 17 7 0 10 -262144
-1 -1;
#X obj 598 257 spigot;
#X msg 637 195 0;
#X obj 637 218 f;
#X msg 605 195 1;
#X obj 605 217 f;
#X obj 709 267 spigot;
#X obj 736 218 f;
#X obj 704 217 f;
#X msg 704 195 0;
#X msg 736 195 1;
#X floatatom 511 219 5 0 0 0 - - -, f 5;
#X floatatom 564 219 5 0 0 0 - - -, f 5;
#X obj 511 239 pack f f;
#X obj 512 198 bang~;
#X floatatom 772 230 5 0 0 0 - - -, f 5;
#X floatatom 825 230 5 0 0 0 - - -, f 5;
#X obj 772 250 pack f f;
#X obj 772 206 bang~;
#X obj 598 293 s 0$-control-out-fa;
#X obj 102 403 r 0$-control-out-fa;
#X connect 0 0 26 0;
#X connect 0 1 27 0;
#X connect 9 0 13 0;
#X connect 11 0 13 0;
#X connect 13 0 14 0;
#X connect 13 1 15 0;
#X connect 14 0 19 0;
#X connect 14 0 24 0;
#X connect 15 0 17 0;
#X connect 15 0 25 0;
#X connect 16 0 34 0;
#X connect 17 0 18 0;
#X connect 18 0 16 1;
#X connect 19 0 20 0;
#X connect 20 0 16 1;
#X connect 21 0 34 0;
#X connect 22 0 21 1;
#X connect 23 0 21 1;
#X connect 24 0 23 0;
#X connect 25 0 22 0;
#X connect 26 0 28 0;
#X connect 27 0 28 1;
#X connect 28 0 16 0;
#X connect 29 0 28 0;
#X connect 30 0 32 0;
#X connect 31 0 32 1;
#X connect 32 0 21 0;
#X connect 33 0 32 0;
#X connect 35 0 2 0;
#X coords 0 -1 1 1 300 300 2 100 100;
