#N canvas 310 143 745 582 10;
#X obj 112 172 abs/midi_reader;
#X text 192 107 === CONTROL ===;
#X obj 102 424 outlet;
#X obj 278 426 outlet;
#X text 100 383 (f \, a);
#X text 367 383 bang;
#X obj 115 131 vradio 15 1 0 2 control-selector-0 empty empty 0 -8
0 10 -262144 -1 -1 0;
#X text 133 131 MIDI reader;
#X text 133 146 Theremin Canvas;
#X obj 653 336 vradio 15 1 0 2 empty control-selector-0 empty 0 -8
0 10 -262144 -1 -1 0;
#X text 601 410 outlet fa;
#X obj 836 210 vradio 15 1 0 2 empty control-selector-0 empty 0 -8
0 10 -262144 -1 -1 0;
#X text 775 287 outlet bang;
#X obj 278 405 r control-out-bang-\$0;
#X obj 748 269 s control-out-bang-\$0;
#X obj 565 394 s control-out-fa-\$0;
#X obj 102 403 r control-out-fa-\$0;
#X obj 565 372 multiplex 1 2;
#X obj 748 247 multiplex 1 2;
#X connect 0 0 17 0;
#X connect 0 1 18 0;
#X connect 9 0 17 2;
#X connect 11 0 18 2;
#X connect 13 0 3 0;
#X connect 16 0 2 0;
#X connect 17 0 15 0;
#X connect 18 0 14 0;
#X coords 0 -1 1 1 300 300 2 100 100;
