#N canvas 0 106 617 479 10;
#X obj 114 157 abs/adsr~;
#X text 199 109 === ENVELOPES ===;
#X obj 100 24 inlet~;
#X text 98 8 signal;
#X obj 173 25 inlet;
#X obj 173 47 unpack f f;
#X text 171 6 (f \, a);
#X obj 303 30 inlet;
#X text 305 12 bang;
#X obj 111 403 outlet~;
#X text 118 386 signal;
#X obj 259 399 outlet;
#X text 307 397 (f \, a);
#X obj 258 373 pack f f;
#X connect 4 0 5 0;
#X connect 13 0 11 0;
#X coords 0 -1 1 1 350 250 1 100 100;
