#N canvas 348 139 1005 547 10;
#X obj 275 130 abs/adsr~;
#X text 203 114 === ENVELOPES ===;
#X obj 100 78 inlet~;
#X text 101 101 signal;
#X obj 247 56 inlet;
#X obj 247 78 unpack f f;
#X text 259 99 (f \, a);
#X obj 411 77 inlet;
#X text 416 99 bang;
#X obj 93 352 outlet~;
#X text 100 335 signal;
#X obj 390 380 outlet;
#X text 402 333 (f \, a);
#X obj 389 354 pack f f;
#X obj 120 127 vradio 15 1 0 2 empty empty empty 0 -8 0 10 -262144
-1 -1 0;
#X text 137 127 ADSR;
#X text 137 142 Linear random;
#X obj 756 91 vradio 15 1 0 2 empty empty empty 0 -8 0 10 -262144 -1
-1 0;
#X obj 654 126 demultiplex 1 2;
#X text 686 111 (f \, a);
#X obj 939 91 vradio 15 1 0 2 empty empty empty 0 -8 0 10 -262144 -1
-1 0;
#X obj 837 126 demultiplex 1 2;
#X text 877 111 bang;
#X obj 603 92 vradio 15 1 0 2 empty empty empty 0 -8 0 10 -262144 -1
-1 0;
#X obj 501 127 demultiplex 1 2;
#X text 531 110 signal;
#X connect 4 0 5 0;
#X connect 13 0 11 0;
#X connect 17 0 18 1;
#X connect 20 0 21 1;
#X connect 23 0 24 1;
#X coords 0 -1 1 1 350 250 2 100 100;
