#N canvas 0 93 1280 675 10;
#X floatatom 790 344 5 0 0 0 Carrier - -, f 5;
#X obj 791 439 osc~;
#X obj 792 519 *~;
#X obj 729 557 dac~;
#X obj 1268 39 env~;
#X obj 1268 61 - 100;
#X obj 1269 99 vu 15 120 empty empty -1 -8 0 10 -66577 -1 1 0;
#X obj 886 421 flatgui/knob 32 32 0 1 0 0 empty empty empty 0 -8 0
8 2.43677e+06 1 2.52787e+06 0 1;
#X msg 886 464 \$1 50;
#X obj 886 486 line~;
#X obj 790 374 +~;
#X obj 1254 251 tgl 15 0 empty empty empty 17 7 0 10 -262144 -1 -1
0 1;
#X msg 1255 273 \; pd dsp \$1;
#X obj 863 322 osc~;
#X floatatom 863 297 5 0 0 1 mod_freq - -, f 5;
#X obj 864 358 *~;
#X floatatom 916 344 5 0 0 1 mod_index - -, f 5;
#X obj 635 97 tgl 15 0 empty \$0-n_tog empty 17 7 0 10 -262144 -1 -1
0 1;
#X obj 635 139 random 200;
#X obj 1045 169 + 200;
#X floatatom 695 97 5 0 0 0 - - -, f 5;
#X obj 1045 147 random 200;
#X obj 1045 102 tgl 15 0 empty \$0-fm_tog empty 17 7 0 10 -262144 -1
-1 0 1;
#X floatatom 1098 106 5 0 0 0 - - -, f 5;
#X obj 828 98 tgl 15 0 empty \$0-am_tog empty 17 7 0 10 -262144 -1
-1 0 1;
#X obj 828 120 metro 125;
#X obj 828 142 random 100;
#X obj 828 164 / 100;
#X floatatom 912 169 5 0 0 0 - - -, f 5;
#X floatatom 888 100 5 0 0 0 - - -, f 5;
#X obj 1045 125 metro 125;
#X obj 635 117 metro 125;
#X msg 1098 82 125;
#X msg 695 76 125;
#X obj 405 265 inlet;
#X obj 405 287 unpack;
#X floatatom 405 328 5 0 0 0 freq - -, f 5;
#X floatatom 477 329 5 0 0 1 amp - -, f 5;
#X obj 111 583 *;
#X floatatom 111 605 5 0 0 0 - - -, f 5;
#X obj 267 179 tgl 15 0 \$0-n_tog empty empty 17 7 0 10 -262144 -1
-1 0 1;
#X obj 264 216 flatgui/knob 20 20 50 1000 0 0 \$0-n_metro empty empty
0 -8 0 8 2.43677e+06 1 2.52787e+06 0 1;
#X text 211 179 in/off;
#X obj 267 197 bng 15 250 50 0 \$0-n_def empty empty 17 7 0 10 -262144
-1 -1;
#X obj 292 179 tgl 15 0 \$0-am_tog empty empty 17 7 0 10 -262144 -1
-1 0 1;
#X obj 289 216 flatgui/knob 20 20 50 1000 0 0 \$0-am_metro empty empty
0 -8 0 8 2.43677e+06 1 2.52787e+06 0 1;
#X obj 292 197 bng 15 250 50 0 \$0-am_def empty empty 17 7 0 10 -262144
-1 -1;
#X obj 317 179 tgl 15 0 \$0-fm_tog empty empty 17 7 0 10 -262144 -1
-1 0 1;
#X obj 314 216 flatgui/knob 20 20 50 1000 0 0 \$0-fm_metro empty empty
0 -8 0 8 2.43677e+06 1 2.52787e+06 0 1;
#X obj 317 197 bng 15 250 50 0 \$0-fm_def empty empty 17 7 0 10 -262144
-1 -1;
#X text 268 159 n;
#X text 290 159 am;
#X text 314 159 fm;
#X text 176 199 set default;
#X text 218 218 metro;
#X obj 112 157 vsl 15 128 0.001 700 1 0 \$0-H empty H 0 -9 0 10 -262144
-1 -1 0 1;
#X msg 888 76 125;
#X obj 132 157 vsl 15 128 0.001 700 1 0 \$0-ndx empty I 0 -9 0 10 -262144
-1 -1 0 1;
#X obj 153 157 vsl 15 128 0 1 0 0 \$0-mod_amp empty A 0 -9 0 10 -262144
-1 -1 0 1;
#X floatatom 932 562 5 0 0 0 final_freq - -, f 5;
#X obj 879 535 snapshot~;
#X floatatom 985 562 5 0 0 1 final_amp - -, f 5;
#X obj 985 538 snapshot~;
#X obj 932 582 pack f f;
#X text 998 295 MAIN;
#X text 978 605 (f \, a);
#X text 401 248 (f \, a);
#X text 819 4 === RANDOM GENERATORS ===;
#X text 675 26 index;
#X text 860 28 amplitude;
#X text 1061 28 modular frequency;
#X text 458 267 INPUTS;
#X text 106 517 Calculation of mod_freq;
#X text 1123 610 Reference: Rafael Hernandez PURE DATA: 21 Beginning
FM Synthesis https://www.youtube.com/watch?v=DgeTHuDSgC0, f 32;
#X text 156 106 FREQUENCY MODULATION;
#X obj 111 538 r \$0-H;
#X obj 129 560 r \$0-freq;
#X obj 111 624 s \$0-mod_freq;
#X obj 405 347 s \$0-freq;
#X obj 477 348 s \$0-amp;
#X obj 916 323 r \$0-ndx;
#X obj 635 161 s \$0-ndx;
#X obj 828 186 s \$0-mod_amp;
#X obj 925 83 r \$0-am_metro;
#X obj 888 53 r \$0-am_def;
#X obj 732 80 r \$0-n_metro;
#X obj 695 53 r \$0-n_def;
#X obj 1045 190 s \$0-mod_freq;
#X obj 1136 89 r \$0-fm_metro;
#X obj 1098 59 r \$0-fm_def;
#X obj 863 276 r \$0-mod_freq;
#X obj 790 320 r \$0-freq;
#X obj 659 554 s~ \$0-VU;
#X obj 886 395 r \$0-mod_amp;
#X obj 1268 17 r~ \$0-VU;
#X obj 792 590 outlet~;
#X text 798 576 signal;
#X obj 932 604 outlet;
#X obj 1183 436 outlet;
#X text 318 103 bang;
#X obj 1183 407 inlet;
#X text 1190 391 bang;
#X msg 409 39 0;
#X floatatom 1157 308 5 0 0 0 - - -, f 5;
#X obj 977 453 tgl 15 0 empty \$0-tgl-fm-graph empty 17 7 0 10 -262144
-1 -1 0 1;
#N canvas 0 132 450 250 (subpatch) 0;
#X array \$0-fm-graph 400 float 5;
#A 0 0 0 0 0 0 0 0 0 0 0 0 0 0 0 0 0 0 0 0 0 0 0 0 0 0 0 0 0 0 0 0
0 0 0 0 0 0 0 0 0 0 0 0 0 0 0 0 0 0 0 0 0 0 0 0 0 0 0 0 0 0 0 0 0 0
0 0 0 0 0 0 0 0 0 0 0 0 0 0 0 0 0 0 0 0 0 0 0 0 0 0 0 0 0 0 0 0 0 0
0 0 0 0 0 0 0 0 0 0 0 0 0 0 0 0 0 0 0 0 0 0 0 0 0 0 0 0 0 0 0 0 0 0
0 0 0 0 0 0 0 0 0 0 0 0 0 0 0 0 0 0 0 0 0 0 0 0 0 0 0 0 0 0 0 0 0 0
0 0 0 0 0 0 0 0 0 0 0 0 0 0 0 0 0 0 0 0 0 0 0 0 0 0 0 0 0 0 0 0 0 0
0 0 0 0 0 0 0 0 0 0 0 0 0 0 0 0 0 0 0 0 0 0 0 0 0 0 0 0 0 0 0 0 0 0
0 0 0 0 0 0 0 0 0 0 0 0 0 0 0 0 0 0 0 0 0 0 0 0 0 0 0 0 0 0 0 0 0 0
0 0 0 0 0 0 0 0 0 0 0 0 0 0 0 0 0 0 0 0 0 0 0 0 0 0 0 0 0 0 0 0 0 0
0 0 0 0 0 0 0 0 0 0 0 0 0 0 0 0 0 0 0 0 0 0 0 0 0 0 0 0 0 0 0 0 0 0
0 0 0 0 0 0 0 0 0 0 0 0 0 0 0 0 0 0 0 0 0 0 0 0 0 0 0 0 0 0 0 0 0 0
0 0 0 0 0 0 0 0 0 0 0 0 0 0 0 0 0 0 0 0 0 0 0 0 0 0 0 0 0;
#X coords 0 1 399 -1 150 100 2 0 0;
#X restore 195 284 graph;
#X obj 977 482 metro 100;
#X text 199 139 random generators;
#X obj 327 263 tgl 15 0 \$0-tgl-fm-graph empty empty 17 7 0 10 -262144
-1 -1 0 1;
#X obj 977 507 tabwrite~ \$0-fm-graph;
#X text 293 246 turn on;
#X obj 483 83 s \$0-ndx;
#X obj 464 104 s \$0-mod_amp;
#X obj 446 125 s \$0-mod_freq;
#X obj 409 59 t f f f f f;
#X obj 409 14 bng 15 250 50 0 empty \$0-fm-clear empty 17 7 0 10 -262144
-1 -1;
#X obj 112 311 bng 15 250 50 0 \$0-fm-clear empty empty 17 7 0 10 -262144
-1 -1;
#X text 129 309 clear;
#X msg 1121 432 0;
#X text 103 105 (f \, a);
#X text 101 393 signal;
#X text 198 393 (f \, a);
#X text 320 392 bang;
#X obj 1122 459 s \$0-init;
#X obj 526 301 r \$0-init;
#X connect 0 0 10 0;
#X connect 1 0 2 0;
#X connect 2 0 60 0;
#X connect 2 0 92 0;
#X connect 2 0 95 0;
#X connect 2 0 109 0;
#X connect 4 0 5 0;
#X connect 5 0 6 0;
#X connect 6 0 103 0;
#X connect 7 0 8 0;
#X connect 8 0 9 0;
#X connect 9 0 2 1;
#X connect 10 0 1 0;
#X connect 11 0 12 0;
#X connect 13 0 15 0;
#X connect 14 0 13 0;
#X connect 15 0 10 1;
#X connect 16 0 15 1;
#X connect 17 0 31 0;
#X connect 18 0 81 0;
#X connect 19 0 87 0;
#X connect 20 0 31 1;
#X connect 21 0 19 0;
#X connect 22 0 30 0;
#X connect 23 0 30 1;
#X connect 24 0 25 0;
#X connect 25 0 26 0;
#X connect 26 0 27 0;
#X connect 27 0 28 0;
#X connect 27 0 82 0;
#X connect 29 0 25 1;
#X connect 30 0 21 0;
#X connect 31 0 18 0;
#X connect 32 0 23 0;
#X connect 33 0 20 0;
#X connect 34 0 35 0;
#X connect 35 0 36 0;
#X connect 35 1 37 0;
#X connect 36 0 78 0;
#X connect 37 0 79 0;
#X connect 38 0 39 0;
#X connect 39 0 77 0;
#X connect 56 0 29 0;
#X connect 59 0 63 0;
#X connect 60 0 59 0;
#X connect 61 0 63 1;
#X connect 62 0 61 0;
#X connect 63 0 97 0;
#X connect 75 0 38 0;
#X connect 76 0 38 1;
#X connect 80 0 16 0;
#X connect 83 0 29 0;
#X connect 84 0 56 0;
#X connect 85 0 20 0;
#X connect 86 0 33 0;
#X connect 88 0 23 0;
#X connect 89 0 32 0;
#X connect 90 0 14 0;
#X connect 91 0 0 0;
#X connect 93 0 7 0;
#X connect 94 0 4 0;
#X connect 100 0 98 0;
#X connect 100 0 118 0;
#X connect 102 0 114 0;
#X connect 104 0 106 0;
#X connect 106 0 109 0;
#X connect 114 2 113 0;
#X connect 114 3 112 0;
#X connect 114 4 111 0;
#X connect 115 0 102 0;
#X connect 118 0 123 0;
#X connect 124 0 37 0;
#X connect 124 0 36 0;
#X coords 0 -1 1 1 250 310 2 100 100;
