#N canvas 683 93 683 675 10;
#X floatatom 20 84 5 0 0 2 Carrier - -, f 5;
#X obj 21 148 osc~;
#X obj 22 225 *~;
#X obj 21 256 dac~;
#X obj 62 241 s~ VU;
#X obj 609 10 r~ VU;
#X obj 609 32 env~;
#X obj 609 54 - 100;
#X obj 610 92 vu 15 120 empty empty -1 -8 0 10 -66577 -1 1 0;
#X obj 116 144 flatgui/knob 32 32 0 1 0 0 empty empty empty 0 -8 0
8 -1.62994e+09 21882 -1.62996e+09 1117 1;
#X msg 116 187 \$1 50;
#X obj 116 209 line~;
#X obj 20 114 +~;
#X obj 524 18 tgl 15 0 empty empty empty 17 7 0 10 -262144 -1 -1 0
1;
#X msg 524 41 \; pd dsp \$1;
#X obj 88 62 osc~;
#X floatatom 88 37 5 0 0 1 mod_freq - -, f 5;
#X obj 89 98 *~;
#X floatatom 141 84 5 0 0 1 mod_index - -, f 5;
#X obj 257 481 tgl 15 0 empty empty empty 17 7 0 10 -262144 -1 -1 0
1;
#X obj 257 523 random 200;
#X obj 257 545 s ndx;
#X obj 141 63 r ndx;
#X obj 40 464 + 200;
#X obj 40 485 s mod_freq;
#X obj 88 16 r mod_freq;
#X obj 257 501 metro 50;
#X floatatom 310 482 5 0 0 0 - - -, f 5;
#X obj 40 442 random 200;
#X obj 40 420 metro 50;
#X obj 40 397 tgl 15 0 empty empty empty 17 7 0 10 -262144 -1 -1 0
1;
#X floatatom 93 401 5 0 0 0 - - -, f 5;
#X obj 372 258 tgl 15 0 empty empty empty 17 7 0 10 -262144 -1 -1 0
1;
#X obj 372 280 metro 125;
#X obj 372 302 random 100;
#X obj 372 324 / 100;
#X obj 372 346 s amp;
#X floatatom 413 348 5 0 0 0 - - -, f 5;
#X obj 116 118 r amp;
#X floatatom 432 260 5 0 0 0 - - -, f 5;
#X text 12 308 MODULAR FREQUENCY GENERATOR;
#X text 242 438 INDEX GENERATOR;
#X text 356 233 AMPLITUDE GENERATOR;
#X obj 93 332 tgl 15 0 empty empty empty 17 7 0 10 -262144 -1 -1 0
1;
#X obj 93 354 metro 1000;
#X obj 93 377 random 500;
#X connect 0 0 12 0;
#X connect 1 0 2 0;
#X connect 2 0 3 0;
#X connect 2 0 4 0;
#X connect 2 0 3 1;
#X connect 5 0 6 0;
#X connect 6 0 7 0;
#X connect 7 0 8 0;
#X connect 9 0 10 0;
#X connect 10 0 11 0;
#X connect 11 0 2 1;
#X connect 12 0 1 0;
#X connect 13 0 14 0;
#X connect 15 0 17 0;
#X connect 16 0 15 0;
#X connect 17 0 12 1;
#X connect 18 0 17 1;
#X connect 19 0 26 0;
#X connect 20 0 21 0;
#X connect 22 0 18 0;
#X connect 23 0 24 0;
#X connect 25 0 16 0;
#X connect 26 0 20 0;
#X connect 27 0 26 1;
#X connect 28 0 23 0;
#X connect 29 0 28 0;
#X connect 30 0 29 0;
#X connect 31 0 29 1;
#X connect 32 0 33 0;
#X connect 33 0 34 0;
#X connect 34 0 35 0;
#X connect 35 0 36 0;
#X connect 35 0 37 0;
#X connect 38 0 9 0;
#X connect 39 0 33 1;
#X connect 43 0 44 0;
#X connect 44 0 45 0;
#X connect 45 0 31 0;
