#N canvas 386 203 709 422 10;
#X obj 443 99 bp~;
#X obj 351 99 bp~;
#X obj 259 99 bp~;
#X obj 21 82 inlet~;
#X obj 458 26 inlet;
#X obj 366 26 inlet;
#X obj 274 26 inlet;
#X obj 236 26 inlet;
#X obj 140 26 inlet;
#X obj 328 26 inlet;
#X obj 421 26 inlet;
#X obj 171 99 bp~;
#X obj 178 26 inlet;
#X obj 308 237 outlet~;
#X connect 0 0 13 0;
#X connect 1 0 13 0;
#X connect 2 0 13 0;
#X connect 3 0 2 0;
#X connect 3 0 1 0;
#X connect 3 0 0 0;
#X connect 3 0 11 0;
#X connect 4 0 0 2;
#X connect 5 0 1 2;
#X connect 6 0 2 2;
#X connect 7 0 2 1;
#X connect 8 0 11 1;
#X connect 9 0 1 1;
#X connect 10 0 0 1;
#X connect 11 0 13 0;
#X connect 12 0 11 1;
