#N canvas -26 22 1279 752 10;
#X obj 764 451 bp~;
#X obj 672 451 bp~;
#X obj 580 451 bp~;
#X obj 469 378 inlet;
#X obj 492 451 bp~;
#X obj 507 378 inlet;
#X obj 631 593 outlet~;
#X obj 200 140 vsl 13 200 0 1 0 0 empty empty empty 0 -9 0 10 -262144
-1 -1 0 1;
#X obj 253 140 vsl 13 200 0 1 0 0 empty empty empty 0 -9 0 10 -262144
-1 -1 0 1;
#X obj 305 140 vsl 13 200 0 1 0 0 empty empty empty 0 -9 0 10 -262144
-1 -1 0 1;
#X obj 146 140 vsl 13 200 0 1 0 0 empty empty empty 0 -9 0 10 -262144
-1 -1 0 1;
#X obj 183 140 vsl 13 200 0 1 0 0 empty f2-0 empty 0 -9 0 10 -262144
-1 -1 0 1;
#X obj 236 140 vsl 13 200 0 1 0 0 empty f3-0 empty 0 -9 0 10 -262144
-1 -1 0 1;
#X obj 288 140 vsl 13 200 0 1 0 0 empty \$0-f4 empty 0 -9 0 10 -262144
-1 -1 0 1;
#X obj 129 140 vsl 13 200 0 1 0 0 empty f1-0 empty 0 -9 0 10 -262144
-1 -1 0 1;
#X text 125 122 f1;
#X text 143 122 Q1;
#X text 179 122 f2;
#X text 197 121 Q2;
#X text 233 122 f3;
#X text 250 122 Q3;
#X text 286 122 f4;
#X text 304 122 Q4;
#X obj 508 294 r \$0-bp-Q1;
#X obj 499 267 r \$0-bp-f1;
#X msg 416 294 clear;
#X obj 583 297 r \$0-bp-f2;
#X obj 596 322 r \$0-bp-Q2;
#X obj 665 337 r \$0-bp-f3;
#X obj 698 355 r \$0-bp-Q3;
#X obj 771 302 r \$0-bp-f4;
#X obj 779 326 r \$0-bp-Q4;
#X obj 165 714 s \$0-bp-f1;
#X obj 182 607 s \$0-bp-Q1;
#N canvas 965 101 112 116 toexp 0;
#X floatatom 35 73 5 0 0 0 - - -, f 5;
#X obj 34 24 exp;
#X obj 40 48 - 0.99;
#X obj 35 92 outlet;
#X obj 35 5 inlet;
#X connect 0 0 3 0;
#X connect 1 0 2 0;
#X connect 2 0 0 0;
#X connect 4 0 1 0;
#X restore 165 648 pd toexp;
#N canvas 492 174 112 116 toexp 0;
#X floatatom 35 73 5 0 0 0 - - -, f 5;
#X obj 34 24 exp;
#X obj 40 48 - 0.99;
#X obj 35 92 outlet;
#X obj 35 5 inlet;
#X connect 0 0 3 0;
#X connect 1 0 2 0;
#X connect 2 0 0 0;
#X connect 4 0 1 0;
#X restore 182 556 pd toexp;
#X obj 182 578 * 200;
#X obj 165 672 * 5000;
#N canvas 492 174 112 116 toexp 0;
#X floatatom 35 73 5 0 0 0 - - -, f 5;
#X obj 34 24 exp;
#X obj 40 48 - 0.99;
#X obj 35 92 outlet;
#X obj 35 5 inlet;
#X connect 0 0 3 0;
#X connect 1 0 2 0;
#X connect 2 0 0 0;
#X connect 4 0 1 0;
#X restore 245 648 pd toexp;
#N canvas 492 174 112 116 toexp 0;
#X floatatom 35 73 5 0 0 0 - - -, f 5;
#X obj 34 24 exp;
#X obj 40 48 - 0.99;
#X obj 35 92 outlet;
#X obj 35 5 inlet;
#X connect 0 0 3 0;
#X connect 1 0 2 0;
#X connect 2 0 0 0;
#X connect 4 0 1 0;
#X restore 262 558 pd toexp;
#X obj 262 580 * 200;
#X obj 245 674 * 5000;
#N canvas 492 174 112 116 toexp 0;
#X floatatom 35 73 5 0 0 0 - - -, f 5;
#X obj 34 24 exp;
#X obj 40 48 - 0.99;
#X obj 35 92 outlet;
#X obj 35 5 inlet;
#X connect 0 0 3 0;
#X connect 1 0 2 0;
#X connect 2 0 0 0;
#X connect 4 0 1 0;
#X restore 326 648 pd toexp;
#N canvas 492 174 112 116 toexp 0;
#X floatatom 35 73 5 0 0 0 - - -, f 5;
#X obj 34 24 exp;
#X obj 40 48 - 0.99;
#X obj 35 92 outlet;
#X obj 35 5 inlet;
#X connect 0 0 3 0;
#X connect 1 0 2 0;
#X connect 2 0 0 0;
#X connect 4 0 1 0;
#X restore 343 558 pd toexp;
#X obj 343 580 * 200;
#X obj 326 674 * 5000;
#N canvas 492 174 112 116 toexp 0;
#X floatatom 35 73 5 0 0 0 - - -, f 5;
#X obj 34 24 exp;
#X obj 40 48 - 0.99;
#X obj 35 92 outlet;
#X obj 35 5 inlet;
#X connect 0 0 3 0;
#X connect 1 0 2 0;
#X connect 2 0 0 0;
#X connect 4 0 1 0;
#X restore 400 648 pd toexp;
#N canvas 492 174 112 116 toexp 0;
#X floatatom 35 73 5 0 0 0 - - -, f 5;
#X obj 34 24 exp;
#X obj 40 48 - 0.99;
#X obj 35 92 outlet;
#X obj 35 5 inlet;
#X connect 0 0 3 0;
#X connect 1 0 2 0;
#X connect 2 0 0 0;
#X connect 4 0 1 0;
#X restore 417 558 pd toexp;
#X obj 417 580 * 200;
#X obj 400 674 * 5000;
#X obj 870 402 noise~;
#X obj 262 609 s \$0-bp-Q2;
#X obj 245 714 s \$0-bp-f2;
#X obj 326 714 s \$0-bp-f3;
#X obj 343 609 s \$0-bp-Q3;
#X obj 417 609 s \$0-bp-Q4;
#X obj 400 704 s \$0-bp-f4;
#X text 197 67 FORMANTS;
#X obj 110 379 hsl 230 20 0 1 0 0 empty empty VCO_Frequency_(1.4Hz-241Hz)
6 9 0 12 -262144 -1 -1 0 1;
#X obj 110 357 hsl 230 20 0 1 0 0 empty empty VCO_Amplitude 6 9 0 12
-262144 -1 -1 0 1;
#X obj 29 648 pack;
#X obj 79 562 t b f;
#N canvas 1167 218 112 116 toexp2 0;
#X floatatom 35 73 5 0 0 0 - - -, f 5;
#X obj 34 24 exp;
#X obj 35 92 outlet;
#X obj 35 5 inlet;
#X obj 40 48 - 0.9;
#X connect 0 0 2 0;
#X connect 1 0 4 0;
#X connect 3 0 1 0;
#X connect 4 0 0 0;
#X restore 30 536 pd toexp2;
#X obj 30 556 * 140;
#X obj 826 384 vradio 18 1 0 2 empty \$0-formant-control empty 0 -8
0 10 -262144 -1 -1 1;
#X text 135 93 White Noise;
#X text 244 93 VCO Pulse;
#X obj 110 401 hsl 230 20 20 10000 0 0 empty empty VCO_Frequency_(20Hz_-_10Kkz)
6 9 0 12 -262144 -1 -1 0 1;
#X obj 31 679 s \$0-tovco;
#X obj 951 67 r \$0-tovco;
#X obj 206 92 hradio 18 1 0 2 \$0-formant-control empty empty 0 -8
0 10 -262144 -1 -1 1;
#X obj 824 434 zexy/multiplex~ 1 2;
#X obj 1071 31 loadbang;
#X msg 1034 69 4;
#X obj 585 583 dac~;
#X obj 110 424 hsl 230 20 0 1 0 0 empty empty GAIN 6 9 0 12 -262144
-1 -1 0 1;
#X obj 631 562 *~;
#X obj 110 529 s \$0-form-gain;
#X obj 646 532 r \$0-form-gain;
#X floatatom 178 694 5 0 0 0 - - -, f 5;
#X floatatom 818 566 5 0 0 0 Frequency - -, f 5;
#N canvas 0 22 128 128 tolin 0;
#X floatatom 35 73 5 0 0 0 - - -, f 5;
#X obj 35 92 outlet;
#X obj 35 5 inlet;
#X obj 35 27 + 0.99;
#X obj 35 49 log;
#X connect 0 0 1 0;
#X connect 2 0 3 0;
#X connect 3 0 4 0;
#X connect 4 0 0 0;
#X restore 818 607 pd tolin;
#X obj 818 585 / 5000;
#X floatatom 818 629 15 0 0 0 Pos_on_slider - -, f 15;
#X floatatom 255 696 5 0 0 0 - - -, f 5;
#X floatatom 336 696 5 0 0 0 - - -, f 5;
#X msg 497 90 \; f1-\$0 0.0989399 \; f2-\$0 0.146694 \; f3-\$0 0.386622
\;;
#X text 531 73 /ow/;
#X text 415 70 /oo/;
#X text 614 69 /u/;
#X text 740 73 /a/;
#X text 847 75 /uh/;
#X text 410 154 /er/;
#X text 507 156 /ae/;
#X text 613 150 /e/;
#X text 738 156 /i/;
#X text 835 159 /iy/;
#X msg 382 89 \; f1-\$0 0.0487901 \; f2-\$0 0.151862 \; f3-\$0 0.363253
\;;
#X msg 601 88 \; f1-\$0 0.0751075 \; f2-\$0 0.177309 \; f3-\$0 0.363253
\;;
#X msg 726 91 \; f1-\$0 0.127513 \; f2-\$0 0.188966 \; f3-\$0 0.39069
\;;
#X msg 831 92 \; f1-\$0 0.0898407 \; f2-\$0 0.188966 \; f3-\$0 0.383901
\;;
#X msg 385 175 \; f1-\$0 0.0843412 \; f2-\$0 0.231112 \; f3-\$0 0.283674
\;;
#X msg 501 175 \; f1-\$0 0.115113 \; f2-\$0 0.288182 \; f3-\$0 0.386622
\;;
#X msg 605 175 \; f1-\$0 0.0916671 \; f2-\$0 0.306013 \; f3-\$0 0.396098
\;;
#X msg 715 177 \; f1-\$0 0.0657877 \; f2-\$0 0.327864 \; f3-\$0 0.405465
\;;
#X msg 827 178 \; f1-\$0 0.0430595 \; f2-\$0 0.370183 \; f3-\$0 0.464991
\;;
#X msg 389 382 \; f1-\$0 0 \; f2-\$0 0 \; f3-\$0 0 \;;
#X obj 120 495 * 5;
#X obj 330 147 vradio 15 1 0 10 \$0-formant-control empty empty 0 -8
0 10 -262144 -1 -1 9;
#X obj 399 13 hradio 15 1 0 10 empty \$0-formant-control empty 0 -8
0 10 -262144 -1 -1 1;
#X obj 432 43 route 0 1 2 3 4 5 6 7 8 9;
#X text 344 163 /ow/;
#X text 344 147 /oo/;
#X text 345 179 /u/;
#X text 343 192 /a/;
#X text 344 206 /uh/;
#X text 345 221 /er/;
#X text 345 237 /ae/;
#X text 348 251 /e/;
#X text 346 267 /i/;
#X text 346 282 /iy/;
#X obj 328 319 bng 30 250 50 0 empty empty clear 0 -6 0 10 -262144
-1 -1;
#X text 104 54 (f \, a);
#X obj 26 312 inlet;
#X text 22 295 (f \, a);
#X obj 26 341 unpack;
#X obj 951 94 abs/vco~;
#X msg 1071 53 1;
#X connect 0 0 76 0;
#X connect 1 0 76 0;
#X connect 2 0 76 0;
#X connect 3 0 4 1;
#X connect 4 0 76 0;
#X connect 5 0 4 2;
#X connect 7 0 39 0;
#X connect 8 0 43 0;
#X connect 9 0 47 0;
#X connect 10 0 35 0;
#X connect 11 0 38 0;
#X connect 12 0 42 0;
#X connect 13 0 46 0;
#X connect 14 0 34 0;
#X connect 23 0 4 2;
#X connect 24 0 4 1;
#X connect 25 0 4 0;
#X connect 25 0 2 0;
#X connect 25 0 1 0;
#X connect 25 0 0 1;
#X connect 26 0 2 1;
#X connect 27 0 2 2;
#X connect 28 0 1 1;
#X connect 29 0 1 2;
#X connect 30 0 0 1;
#X connect 31 0 0 2;
#X connect 34 0 37 0;
#X connect 35 0 36 0;
#X connect 36 0 33 0;
#X connect 37 0 32 0;
#X connect 37 0 79 0;
#X connect 38 0 41 0;
#X connect 39 0 40 0;
#X connect 40 0 51 0;
#X connect 41 0 52 0;
#X connect 41 0 84 0;
#X connect 42 0 45 0;
#X connect 43 0 44 0;
#X connect 44 0 54 0;
#X connect 45 0 53 0;
#X connect 45 0 85 0;
#X connect 46 0 49 0;
#X connect 47 0 48 0;
#X connect 48 0 55 0;
#X connect 49 0 56 0;
#X connect 50 0 71 0;
#X connect 58 0 62 0;
#X connect 59 0 61 0;
#X connect 60 0 68 0;
#X connect 61 0 60 0;
#X connect 61 1 60 1;
#X connect 62 0 63 0;
#X connect 63 0 60 0;
#X connect 64 0 71 0;
#X connect 67 0 60 0;
#X connect 69 0 126 0;
#X connect 71 0 4 0;
#X connect 71 0 2 0;
#X connect 71 0 1 0;
#X connect 71 0 0 0;
#X connect 72 0 73 0;
#X connect 72 0 127 0;
#X connect 73 0 126 1;
#X connect 75 0 107 0;
#X connect 76 0 6 0;
#X connect 76 0 74 0;
#X connect 76 0 74 1;
#X connect 78 0 76 1;
#X connect 80 0 82 0;
#X connect 81 0 83 0;
#X connect 82 0 81 0;
#X connect 107 0 77 0;
#X connect 109 0 110 0;
#X connect 110 0 97 0;
#X connect 110 1 86 0;
#X connect 110 2 98 0;
#X connect 110 3 99 0;
#X connect 110 4 100 0;
#X connect 110 6 101 0;
#X connect 110 7 102 0;
#X connect 110 8 103 0;
#X connect 110 9 104 0;
#X connect 110 10 105 0;
#X connect 123 0 125 0;
#X connect 125 0 58 0;
#X connect 125 0 67 0;
#X connect 126 0 71 1;
#X connect 127 0 126 2;
#X coords 0 -1 1 1 275 420 2 100 50;
