#N canvas 0 93 1280 675 10;
#X obj 68 239 sel 97;
#X obj 561 91 keyup;
#X obj 561 115 bng 15 250 50 0 empty empty empty 17 7 0 10 -262144
-1 -1;
#X obj 68 263 bng 15 250 50 0 empty empty empty 17 7 0 10 -262144 -1
-1;
#X msg 68 283 60;
#X obj 68 305 mtof;
#X floatatom 68 330 5 0 0 0 - - -, f 5;
#X obj 208 263 bng 15 250 50 0 empty empty empty 17 7 0 10 -262144
-1 -1;
#X obj 208 305 mtof;
#X floatatom 208 330 5 0 0 0 - - -, f 5;
#X obj 208 239 sel 115;
#X msg 208 283 62;
#X obj 348 263 bng 15 250 50 0 empty empty empty 17 7 0 10 -262144
-1 -1;
#X obj 348 305 mtof;
#X floatatom 348 330 5 0 0 0 - - -, f 5;
#X obj 348 239 sel 100;
#X msg 348 283 64;
#X obj 408 263 bng 15 250 50 0 empty empty empty 17 7 0 10 -262144
-1 -1;
#X obj 408 305 mtof;
#X floatatom 408 330 5 0 0 0 - - -, f 5;
#X obj 408 239 sel 102;
#X msg 408 283 65;
#X obj 548 263 bng 15 250 50 0 empty empty empty 17 7 0 10 -262144
-1 -1;
#X obj 548 305 mtof;
#X floatatom 548 330 5 0 0 0 - - -, f 5;
#X obj 548 239 sel 103;
#X msg 548 283 67;
#X text 69 20 C;
#X text 20 13 note;
#X obj 708 263 bng 15 250 50 0 empty empty empty 17 7 0 10 -262144
-1 -1;
#X obj 708 305 mtof;
#X floatatom 708 330 5 0 0 0 - - -, f 5;
#X obj 708 239 sel 104;
#X msg 708 283 69;
#X text 216 22 D;
#X text 349 22 E;
#X text 414 23 F;
#X text 556 25 G;
#X text 720 25 A;
#X obj 858 263 bng 15 250 50 0 empty empty empty 17 7 0 10 -262144
-1 -1;
#X obj 858 305 mtof;
#X floatatom 858 330 5 0 0 0 - - -, f 5;
#X text 870 25 B;
#X obj 858 239 sel 106;
#X obj 137 263 bng 15 250 50 0 empty empty empty 17 7 0 10 -262144
-1 -1;
#X obj 137 305 mtof;
#X floatatom 137 330 5 0 0 0 - - -, f 5;
#X text 138 20 C#;
#X obj 137 239 sel 119;
#X msg 137 283 61;
#X obj 278 263 bng 15 250 50 0 empty empty empty 17 7 0 10 -262144
-1 -1;
#X obj 278 305 mtof;
#X floatatom 278 330 5 0 0 0 - - -, f 5;
#X text 285 20 D#;
#X obj 278 239 sel 101;
#X msg 278 282 63;
#X obj 468 263 bng 15 250 50 0 empty empty empty 17 7 0 10 -262144
-1 -1;
#X obj 468 305 mtof;
#X floatatom 468 329 5 0 0 0 - - -, f 5;
#X obj 468 239 sel 116;
#X msg 468 283 66;
#X text 468 24 F#;
#X obj 618 263 bng 15 250 50 0 empty empty empty 17 7 0 10 -262144
-1 -1;
#X obj 618 305 mtof;
#X floatatom 618 330 5 0 0 0 - - -, f 5;
#X obj 618 239 sel 121;
#X msg 618 283 68;
#X text 623 30 G#;
#X obj 778 263 bng 15 250 50 0 empty empty empty 17 7 0 10 -262144
-1 -1;
#X obj 778 305 mtof;
#X floatatom 778 330 5 0 0 0 - - -, f 5;
#X obj 778 239 sel 117;
#X msg 858 283 71;
#X msg 778 283 70;
#X text 783 25 A#;
#X obj 928 263 bng 15 250 50 0 empty empty empty 17 7 0 10 -262144
-1 -1;
#X obj 928 305 mtof;
#X floatatom 928 330 5 0 0 0 - - -, f 5;
#X obj 928 239 sel 107;
#X msg 928 283 72;
#X text 940 25 C;
#X floatatom 415 441 5 0 0 0 - - -, f 5;
#X msg 415 460 \$1 1;
#X obj 415 504 outlet;
#X obj 620 130 outlet;
#X obj 118 520 hradio 15 1 0 8 \$0-keys-natural empty empty 0 -8 0
10 -262144 -1 -1 0;
#X msg 37 466 0;
#X msg 82 466 1;
#X msg 123 465 2;
#X msg 162 465 3;
#X msg 201 464 4;
#X msg 238 463 5;
#X msg 273 465 6;
#X msg 313 464 7;
#X obj 540 504 hradio 15 1 0 5 \$0-key-sharp empty empty 0 -8 0 10
-262144 -1 -1 2;
#X obj 414 483 pack f f;
#X msg 537 466 0;
#X msg 623 465 2;
#X msg 662 465 3;
#X msg 701 464 4;
#X msg 738 463 5;
#X msg 773 465 6;
#X msg 813 464 7;
#X msg 581 463 1;
#X obj 1019 529 hradio 20 1 0 8 empty \$0-keys-natural empty 0 -8 0
10 -262144 -1 -1 0;
#X obj 1032 500 hradio 25 1 0 5 empty \$0-key-sharp empty 0 -8 0 10
-1 -262144 -1 2;
#X text 1023 551 C;
#X text 1043 550 D;
#X text 1064 550 E;
#X text 1084 550 F;
#X text 1104 550 G;
#X text 1124 551 A;
#X text 1143 551 B;
#X text 1033 481 C#;
#X text 1087 480 F#;
#X text 1112 480 G#;
#X text 1137 480 A#;
#X text 1163 551 C;
#X text 1061 480 D#;
#X text 1066 453 KEYMAPPER;
#X text 1000 572 (f \, a);
#X text 1166 574 bang;
#X obj 1169 468 tgl 15 0 \$0-key-tgl empty empty 17 7 0 10 -262144
-1 -1 1 1;
#X text 1152 451 on/off;
#X obj 449 89 key;
#X obj 449 203 spigot;
#X obj 496 97 tgl 15 0 empty \$0-key-tgl empty 17 7 0 10 -262144 -1
-1 1 1;
#X obj 491 182 tgl 15 0 empty empty empty 17 7 0 10 -262144 -1 -1 1
1;
#X obj 449 118 spigot;
#X obj 449 139 t b f;
#X msg 491 161 0, f 1;
#X msg 561 135 1, f 1;
#X connect 0 0 3 0;
#X connect 1 0 2 0;
#X connect 2 0 131 0;
#X connect 2 0 84 0;
#X connect 3 0 4 0;
#X connect 3 0 86 0;
#X connect 4 0 5 0;
#X connect 5 0 6 0;
#X connect 6 0 81 0;
#X connect 7 0 11 0;
#X connect 7 0 87 0;
#X connect 8 0 9 0;
#X connect 9 0 81 0;
#X connect 10 0 7 0;
#X connect 11 0 8 0;
#X connect 12 0 16 0;
#X connect 12 0 88 0;
#X connect 13 0 14 0;
#X connect 14 0 81 0;
#X connect 15 0 12 0;
#X connect 16 0 13 0;
#X connect 17 0 21 0;
#X connect 17 0 89 0;
#X connect 18 0 19 0;
#X connect 19 0 81 0;
#X connect 20 0 17 0;
#X connect 21 0 18 0;
#X connect 22 0 26 0;
#X connect 22 0 90 0;
#X connect 23 0 24 0;
#X connect 24 0 81 0;
#X connect 25 0 22 0;
#X connect 26 0 23 0;
#X connect 29 0 33 0;
#X connect 29 0 91 0;
#X connect 30 0 31 0;
#X connect 31 0 81 0;
#X connect 32 0 29 0;
#X connect 33 0 30 0;
#X connect 39 0 72 0;
#X connect 39 0 92 0;
#X connect 40 0 41 0;
#X connect 41 0 81 0;
#X connect 43 0 39 0;
#X connect 44 0 49 0;
#X connect 44 0 96 0;
#X connect 45 0 46 0;
#X connect 46 0 81 0;
#X connect 48 0 44 0;
#X connect 49 0 45 0;
#X connect 50 0 55 0;
#X connect 50 0 103 0;
#X connect 51 0 52 0;
#X connect 52 0 81 0;
#X connect 54 0 50 0;
#X connect 55 0 51 0;
#X connect 56 0 60 0;
#X connect 56 0 97 0;
#X connect 57 0 58 0;
#X connect 58 0 81 0;
#X connect 59 0 56 0;
#X connect 60 0 57 0;
#X connect 62 0 66 0;
#X connect 62 0 98 0;
#X connect 63 0 64 0;
#X connect 64 0 81 0;
#X connect 65 0 62 0;
#X connect 66 0 63 0;
#X connect 68 0 73 0;
#X connect 68 0 99 0;
#X connect 69 0 70 0;
#X connect 70 0 81 0;
#X connect 71 0 68 0;
#X connect 72 0 40 0;
#X connect 73 0 69 0;
#X connect 75 0 79 0;
#X connect 75 0 93 0;
#X connect 76 0 77 0;
#X connect 77 0 81 0;
#X connect 78 0 75 0;
#X connect 79 0 76 0;
#X connect 81 0 82 0;
#X connect 82 0 95 0;
#X connect 86 0 85 0;
#X connect 87 0 85 0;
#X connect 88 0 85 0;
#X connect 89 0 85 0;
#X connect 90 0 85 0;
#X connect 91 0 85 0;
#X connect 92 0 85 0;
#X connect 93 0 85 0;
#X connect 95 0 83 0;
#X connect 96 0 94 0;
#X connect 97 0 94 0;
#X connect 98 0 94 0;
#X connect 99 0 94 0;
#X connect 103 0 94 0;
#X connect 124 0 128 0;
#X connect 125 0 0 0;
#X connect 125 0 48 0;
#X connect 125 0 10 0;
#X connect 125 0 54 0;
#X connect 125 0 15 0;
#X connect 125 0 20 0;
#X connect 125 0 59 0;
#X connect 125 0 25 0;
#X connect 125 0 65 0;
#X connect 125 0 32 0;
#X connect 125 0 71 0;
#X connect 125 0 43 0;
#X connect 125 0 78 0;
#X connect 126 0 128 1;
#X connect 127 0 125 1;
#X connect 128 0 129 0;
#X connect 129 0 130 0;
#X connect 129 1 125 0;
#X connect 130 0 127 0;
#X connect 131 0 127 0;
#X coords 0 -1 1 1 200 140 2 1000 450;
