#N canvas 805 121 488 504 10;
#X obj 65 32 inlet~;
#X obj 138 176 vu 15 120 empty empty -1 -8 0 10 -66577 -1 1 0;
#X obj 112 172 vsl 20 128 0.01 1 1 0 empty empty empty 0 -9 0 10 -260097
-1 -1 2500 1;
#X obj 65 345 *~;
#X msg 112 316 \$1 50;
#X obj 112 338 line~;
#X obj 65 367 env~;
#X obj 65 389 - 100;
#X text 120 144 MASTER;
#X text 102 102 ~;
#X obj 159 108 tgl 25 0 empty empty dsp 4 12 0 10 -204786 -1 -1 1 1
;
#X msg 243 158 \; pd dsp \$1;
#X obj 148 392 dac~;
#X connect 0 0 3 0;
#X connect 2 0 4 0;
#X connect 3 0 6 0;
#X connect 3 0 12 0;
#X connect 3 0 12 1;
#X connect 4 0 5 0;
#X connect 5 0 3 1;
#X connect 6 0 7 0;
#X connect 7 0 1 0;
#X connect 10 0 11 0;
#X coords 0 -1 1 1 90 210 2 100 100;
