#N canvas 324 68 870 669 10;
#X obj 312 49 bng 15 250 50 0 empty empty empty 17 7 0 10 -262144 -1
-1;
#X text 310 3 Open MIDI;
#X obj 244 130 bng 15 250 50 0 empty empty empty 17 7 0 10 -262144
-1 -1;
#X text 264 129 Stop;
#X obj 206 203 bng 15 250 50 0 empty empty empty 17 7 0 10 -262144
-1 -1;
#X text 226 202 Play;
#X floatatom 312 472 5 0 0 0 - - -, f 5;
#X obj 312 446 mtof;
#X obj 312 498 osc~;
#X obj 312 329 unpack;
#X obj 312 384 stripnote;
#X floatatom 312 419 5 0 0 0 - - -, f 5;
#X obj 386 244 bng 15 250 50 0 empty empty empty 17 7 0 10 -262144
-1 -1;
#X obj 312 71 openpanel;
#X msg 344 128 read \$1;
#X obj 312 97 t b s;
#X obj 312 218 cyclone/seq;
#X msg 386 264 0;
#X text 405 243 Final do sequenciamento.;
#X obj 312 299 cyclone/midiparse;
#X obj 151 513 *~;
#X text 352 418 Número MIDI;
#X text 353 470 Hertz;
#X floatatom 312 351 5 0 0 0 - - -, f 5;
#X floatatom 372 346 5 0 0 0 - - -, f 5;
#X text 270 350 pitch;
#X text 412 344 velocity;
#X msg 409 145 stop;
#X obj 195 529 env~;
#X floatatom 195 553 5 0 0 0 - - -, f 5;
#X obj 168 238 flatgui/knob 25 25 0 1 0 0 empty empty empty 0 -8 0
8 3.28778e+06 1 2.23795e+06 0 1;
#X msg 168 317 \$1 5;
#X obj 168 380 line~;
#X text 399 474 frequency;
#X text 244 574 amplitude;
#X obj 330 605 pack f f;
#X obj 330 627 outlet;
#X obj 519 507 outlet;
#X text 522 524 bang;
#X obj 519 455 sel 0;
#X obj 519 480 bng 15 250 50 0 empty empty empty 17 7 0 10 -262144
-1 -1;
#X obj 312 25 inlet;
#X obj 244 103 inlet;
#X obj 168 200 inlet;
#X obj 206 174 inlet;
#X obj 103 231 flatgui/knob 32 32 0 127 0 0 empty empty empty 0 -8
0 8 3.26978e+06 1 2.23795e+06 0 1;
#X connect 0 0 13 0;
#X connect 2 0 27 0;
#X connect 4 0 16 0;
#X connect 6 0 8 0;
#X connect 6 0 35 0;
#X connect 7 0 6 0;
#X connect 8 0 20 0;
#X connect 9 0 23 0;
#X connect 9 1 24 0;
#X connect 10 0 11 0;
#X connect 11 0 7 0;
#X connect 12 0 17 0;
#X connect 13 0 15 0;
#X connect 14 0 16 0;
#X connect 15 0 16 0;
#X connect 15 1 14 0;
#X connect 16 0 19 0;
#X connect 16 1 12 0;
#X connect 17 0 8 0;
#X connect 19 0 9 0;
#X connect 20 0 28 0;
#X connect 23 0 10 0;
#X connect 24 0 10 1;
#X connect 24 0 39 0;
#X connect 27 0 16 0;
#X connect 27 0 12 0;
#X connect 27 0 40 0;
#X connect 28 0 29 0;
#X connect 29 0 35 1;
#X connect 31 0 32 0;
#X connect 32 0 20 1;
#X connect 35 0 36 0;
#X connect 39 0 40 0;
#X connect 40 0 37 0;
#X connect 41 0 0 0;
#X connect 42 0 2 0;
#X connect 43 0 30 0;
#X connect 43 0 45 0;
#X connect 44 0 4 0;
#X connect 45 0 31 0;
#X coords 0 669 1 668 100 75 0;
