#N canvas 0 93 1366 675 10;
#X text 286 115 === SYNTHESIS ===;
#X obj 108 204 abs/fm;
#X obj 100 81 inlet;
#X obj 558 81 inlet;
#X text 103 105 (f \, a);
#X text 564 101 bang;
#X text 315 485 (f \, a);
#X text 566 484 bang;
#X obj 110 138 vradio 15 1 0 4 \$0-synthesis-selector empty empty 0
-8 0 10 -262144 -1 -1 0;
#X text 127 169 FM;
#X text 127 184 Closed formulas;
#X text 127 137 VCO;
#X text 127 152 Wavelets;
#X obj 642 30 vradio 15 1 0 4 empty \$0-synthesis-selector empty 0
-8 0 10 -262144 -1 -1 0;
#X obj 642 98 zexy/demultiplex 1 2 3 4;
#X obj 642 181 s \$0-fa-fm;
#X obj 697 160 s \$0-fa-vco;
#X obj 752 140 s \$0-fa-wavelets;
#X obj 807 119 s \$0-fa-closed;
#X text 698 70 (f \, a);
#X obj 932 30 vradio 15 1 0 4 empty \$0-synthesis-selector empty 0
-8 0 10 -262144 -1 -1 0;
#X obj 932 98 zexy/demultiplex 1 2 3 4;
#X obj 932 181 s \$0-b-fm;
#X obj 987 160 s \$0-b-vco;
#X obj 1042 140 s \$0-b-wavelets;
#X obj 1097 119 s \$0-b-closed;
#X text 988 70 bang;
#X obj 15 159 r \$0-fa-fm;
#X obj 15 187 r \$0-b-fm;
#X obj 729 330 vradio 15 1 0 4 empty \$0-synthesis-selector empty 0
-8 0 10 -262144 -1 -1 0;
#X obj 701 403 multiplex~ 1 2 3 4;
#X obj 102 503 outlet~;
#X text 774 349 signal;
#X text 103 485 signal;
#X obj 1040 337 vradio 15 1 0 4 empty \$0-synthesis-selector empty
0 -8 0 10 -262144 -1 -1 0;
#X text 994 349 (f \, a);
#X obj 1247 337 vradio 15 1 0 4 empty \$0-synthesis-selector empty
0 -8 0 10 -262144 -1 -1 0;
#X text 1204 349 bang;
#X obj 319 508 outlet;
#X obj 562 504 outlet;
#X obj 924 403 multiplex 1 2 3 4;
#X obj 1131 403 multiplex 1 2 3 4;
#X connect 1 0 30 0;
#X connect 1 1 40 0;
#X connect 1 2 41 0;
#X connect 2 0 14 0;
#X connect 3 0 21 0;
#X connect 13 0 14 0;
#X connect 14 0 15 0;
#X connect 14 1 16 0;
#X connect 14 2 17 0;
#X connect 14 3 18 0;
#X connect 20 0 21 0;
#X connect 21 0 22 0;
#X connect 21 1 23 0;
#X connect 21 2 24 0;
#X connect 21 3 25 0;
#X connect 27 0 1 0;
#X connect 28 0 1 1;
#X connect 29 0 30 0;
#X connect 30 0 31 0;
#X connect 34 0 40 4;
#X connect 36 0 41 4;
#X connect 40 0 38 0;
#X connect 41 0 39 0;
#X coords 0 -1 1 1 500 400 2 100 100;
