#N canvas 88 94 1262 622 10;
#X obj 0 0 cnv 300 300 300 c2 cc empty 20 12 0 14 -233017 -66577 0
;
#X msg 916 121 \; cc vis_size 200 200 \;;
#X obj 653 102 cyclone/mousestate;
#X floatatom 680 153 5 0 0 0 - - -, f 5;
#X floatatom 706 136 5 0 0 0 - - -, f 5;
#X floatatom 653 170 5 0 0 0 - - -, f 5;
#X obj 653 60 tgl 15 0 empty empty empty 17 7 0 10 -262144 -1 -1 1
1;
#X obj 653 80 metro 20;
#X msg 1059 185 \; cc pos 0 0;
#X obj 648 230 sel 1;
#X obj 652 281 bng 15 250 50 0 empty empty empty 17 7 0 10 -262144
-1 -1;
#X obj 315 31 vradio 15 1 0 2 empty empty empty 0 -8 0 10 -262144 -1
-1 0;
#X text 333 45 calibrar;
#X obj 429 168 tgl 15 0 empty empty empty 17 7 0 10 -262144 -1 -1 0
1;
#X obj 395 195 spigot;
#X obj 365 229 bng 15 250 50 0 empty empty empty 17 7 0 10 -262144
-1 -1;
#X msg 365 94 0;
#X obj 429 145 del 100;
#X obj 318 278 f;
#X floatatom 318 300 5 0 0 0 - - -, f 5;
#X obj 375 279 f;
#X floatatom 375 301 5 0 0 0 - - -, f 5;
#X obj 504 345 -;
#X obj 422 358 -;
#X floatatom 504 367 5 0 0 0 - - -, f 5;
#X floatatom 422 380 5 0 0 0 - - -, f 5;
#N canvas 534 62 466 413 amplitud 1;
#X obj 125 53 inlet;
#X obj 165 125 - 300;
#X obj 165 155 * 10;
#X obj 165 177 / 300;
#X obj 173 261 pow;
#X obj 171 201 t b f;
#X msg 171 223 10;
#X floatatom 173 283 15 0 0 0 - - -, f 15;
#X obj 173 302 outlet;
#X connect 0 0 1 0;
#X connect 1 0 2 0;
#X connect 2 0 3 0;
#X connect 3 0 5 0;
#X connect 4 0 7 0;
#X connect 5 0 6 0;
#X connect 5 1 4 1;
#X connect 6 0 4 0;
#X connect 7 0 8 0;
#X restore 225 410 pd amplitud;
#X floatatom 181 312 15 0 0 3 Amplitude - -, f 15;
#N canvas 395 130 447 377 frequ 0;
#X obj 139 69 inlet;
#X obj 141 105 - 300;
#X obj 141 157 / 300;
#X obj 149 241 pow;
#X obj 147 181 t b f;
#X msg 147 203 10;
#X floatatom 151 309 15 0 0 0 - - -, f 15;
#X obj 151 328 outlet;
#X obj 141 135 * 3;
#X obj 149 263 * 20000;
#X connect 0 0 1 0;
#X connect 1 0 8 0;
#X connect 2 0 4 0;
#X connect 3 0 9 0;
#X connect 4 0 5 0;
#X connect 4 1 3 1;
#X connect 5 0 3 0;
#X connect 6 0 7 0;
#X connect 8 0 2 0;
#X connect 9 0 6 0;
#X restore 442 430 pd frequ;
#X floatatom 35 311 15 0 0 3 Frequency - -, f 15;
#X obj 145 450 expr if($f1>1 \, 1 \, if($f1<1e-10 \, 1e-10 \, $f1))
;
#X obj 442 452 expr if($f1>20000 \, 20000 \, if($f1<20 \, 20 \, $f1))
;
#X obj 55 418 pack f f;
#X connect 2 0 5 0;
#X connect 2 1 3 0;
#X connect 2 2 4 0;
#X connect 3 0 18 1;
#X connect 3 0 23 0;
#X connect 4 0 20 1;
#X connect 4 0 22 0;
#X connect 5 0 9 0;
#X connect 6 0 7 0;
#X connect 7 0 2 0;
#X connect 9 0 10 0;
#X connect 10 0 14 0;
#X connect 11 0 17 0;
#X connect 13 0 14 1;
#X connect 14 0 15 0;
#X connect 15 0 16 0;
#X connect 15 0 18 0;
#X connect 15 0 20 0;
#X connect 16 0 11 0;
#X connect 17 0 13 0;
#X connect 18 0 19 0;
#X connect 19 0 23 1;
#X connect 20 0 21 0;
#X connect 21 0 22 1;
#X connect 22 0 24 0;
#X connect 23 0 25 0;
#X connect 24 0 28 0;
#X connect 25 0 26 0;
#X connect 26 0 30 0;
#X connect 27 0 32 1;
#X connect 28 0 31 0;
#X connect 29 0 32 0;
#X connect 30 0 27 0;
#X connect 31 0 29 0;
