#N canvas 102 197 450 300 10;
#X obj 69 26 inlet;
#X obj 69 66 s \$0-out;
#X obj 71 236 outlet;
#X obj 69 209 r \$0-out;
#N canvas 0 22 450 278 (subpatch) 0;
#X array \$0array 1 float 3;
#A 0 8;
#X coords 0 100 1 -100 100 140 2 0 0;
#X restore 200 130 graph;
#X obj 84 126 tabwrite \$0array;
#X obj 84 100 r \$0-out;
#X floatatom 29 33 5 0 0 0 - - -, f 5;
#X connect 0 0 1 0;
#X connect 3 0 2 0;
#X connect 6 0 5 0;
#X coords 0 -1 1 1 100 170 1 200 100;
