#N canvas 458 243 450 300 10;
#N canvas 0 106 450 300 controle 0;
#X obj 190 53 inlet;
#X obj 190 93 outlet;
#X connect 0 0 1 0;
#X restore 45 74 pd controle;
#N canvas 0 106 450 300 sintese 0;
#X obj 220 121 outlet~;
#X obj 221 80 inlet;
#X connect 1 0 0 0;
#X restore 45 102 pd sintese;
#N canvas 0 93 450 300 envelope 0;
#X obj 224 120 inlet~;
#X obj 224 142 outlet~;
#X connect 0 0 1 0;
#X restore 45 129 pd envelope;
#N canvas 0 93 450 300 efeitos 0;
#X obj 300 156 inlet~;
#X obj 300 178 outlet~;
#X connect 0 0 1 0;
#X restore 46 154 pd efeitos;
#X text 243 107 testando github;
#X text 182 145 comment;
#X connect 0 0 1 0;
#X connect 1 0 2 0;
#X connect 2 0 3 0;
