#N canvas -267 -1058 1920 1036 10;
#X obj 380 103 abs/fm;
#X obj 145 209 abs/midi_reader;
#X obj 85 711 abs/adsr~;
#X obj 1277 769 abs/reverb;
#X obj 1423 784 abs/wahwah;
#X obj 660 694 abs/fir~;
#X obj 1421 81 abs/formant~;
#X obj 1725 183 abs/chebyshev~;
#X obj 1064 800 abs/ringmod~;
#X obj 263 727 abs/env_generator~;
#X text 211 130 CONTROL;
#X text 968 68 SYNTHESIS;
#X text 1120 680 FX;
#X text 370 684 ENVELOPE;
#X obj 657 467 env~;
#X obj 657 489 - 100;
#X obj 657 511 vu 15 120 empty empty -1 -8 0 10 -66577 -1 1 0;
#X obj 113 63 tgl 15 0 empty empty empty 17 7 0 10 -262144 -1 -1 1
1;
#X msg 113 83 \; pd dsp \$1;
#X obj 717 623 dac~;
#X obj 729 578 *~;
#X obj 744 403 vsl 15 128 0.01 1 1 0 empty empty empty 0 -9 0 10 -262144
-1 -1 6300 1;
#X msg 744 535 \$1 50;
#X obj 744 557 line~;
#X text 664 435 MASTER;
#X obj 145 319 unpack;
#X obj 145 341 print;
#X obj 793 140 abs/vco~;
#X connect 0 0 20 0;
#X connect 1 0 25 0;
#X connect 1 0 6 0;
#X connect 6 0 20 0;
#X connect 14 0 15 0;
#X connect 15 0 16 0;
#X connect 17 0 18 0;
#X connect 20 0 19 0;
#X connect 20 0 19 1;
#X connect 20 0 14 0;
#X connect 21 0 22 0;
#X connect 22 0 23 0;
#X connect 23 0 20 1;
#X connect 25 0 26 0;
#X connect 27 0 20 0;
#X coords 0 1036 1 1035 85 60 0;
