#N canvas 0 93 1366 675 10;
#X obj 539 -256 abs/fm;
#X obj 23 -207 abs/midi_reader;
#X obj 50 153 abs/adsr~;
#X obj 1159 175 abs/reverb;
#X obj 997 194 abs/wahwah;
#X obj 466 68 abs/fir~;
#X obj 1058 -256 abs/formant~;
#X obj 449 -256 abs/chebyshev~;
#X obj 806 219 abs/ringmod~;
#X obj 198 157 abs/env_generator~;
#X text 117 -231 CONTROL;
#X text 878 -272 SYNTHESIS;
#X text 175 114 ENVELOPE;
#X obj 796 -256 abs/vco~;
#X obj 18 -91 abs/keycontrol;
#X obj 268 -252 abs/master;
#X text 915 147 FX;
#X connect 0 0 2 0;
#X connect 0 1 2 1;
#X connect 0 2 2 2;
#X connect 1 0 7 0;
#X connect 1 1 7 1;
#X connect 7 0 2 0;
#X connect 7 1 2 1;
#X connect 7 2 2 2;
#X connect 13 0 2 0;
#X connect 13 1 2 1;
#X connect 13 2 2 2;
#X coords 0 675 1 674 85 60 0;
