#N canvas 4 110 827 631 10;
#X text 192 107 === CONTROL ===;
#X obj 102 424 outlet;
#X obj 278 426 outlet;
#X text 100 383 (f \, a);
#X text 367 383 bang;
#X obj 115 131 vradio 15 1 0 2 control-selector-0 empty empty 0 -8
0 10 -262144 -1 -1 1;
#X text 133 131 MIDI reader;
#X text 133 146 Theremin Canvas;
#X obj 670 335 vradio 15 1 0 2 empty control-selector-0 empty 0 -8
0 10 -262144 -1 -1 1;
#X text 601 410 outlet fa;
#X obj 836 210 vradio 15 1 0 2 empty control-selector-0 empty 0 -8
0 10 -262144 -1 -1 1;
#X text 775 287 outlet bang;
#X obj 278 405 r control-out-bang-\$0;
#X obj 748 269 s control-out-bang-\$0;
#X obj 565 394 s control-out-fa-\$0;
#X obj 102 403 r control-out-fa-\$0;
#X obj 748 247 zexy/multiplex 1 2;
#X obj 565 372 zexy/multiplex 1 2;
#X obj 161 198 abs/midi_reader;
#X connect 8 0 17 2;
#X connect 10 0 16 2;
#X connect 12 0 2 0;
#X connect 15 0 1 0;
#X connect 16 0 13 0;
#X connect 17 0 14 0;
#X connect 18 0 17 0;
#X connect 18 1 16 0;
#X coords 0 -1 1 1 300 300 2 100 100;
