#N canvas 84 180 1280 752 10;
#X obj 652 219 until;
#X obj 807 637 list prepend;
#X obj 657 251 f;
#X obj 581 434 f;
#X obj 585 464 *;
#X obj 880 480 t f f;
#X obj 806 612 pack;
#X obj 807 666 t l l;
#X obj 846 516 < 22050;
#X obj 826 567 tgl 15 0 empty empty empty 17 7 0 10 -262144 -1 -1 0
1;
#X obj 795 589 spigot;
#X obj 811 481 t f f f;
#X obj 916 120 + 1;
#X obj 1032 130 + 2;
#X obj 714 318 zexy/demultiplex sin squ saw tri pul;
#X floatatom 118 425 5 0 0 0 - - -, f 5;
#X obj 118 403 expr if($f1/2-int($f1/2) > 0 \, $f1 \, 0);
#X obj 872 425 f;
#N canvas 316 128 450 300 triangular 1;
#X floatatom 107 150 5 0 0 0 - - -, f 5;
#X obj 107 49 inlet;
#X obj 107 169 t f f;
#X obj 152 231 outlet;
#X obj 90 231 outlet;
#X obj 119 111 expr if($f1/2-int($f1/2) > 0 \, $f1 \, 0);
#X obj 146 195 pow 2;
#X connect 0 0 2 0;
#X connect 1 0 5 0;
#X connect 2 0 4 0;
#X connect 2 1 6 0;
#X connect 5 0 0 0;
#X connect 6 0 3 0;
#X restore 1036 325 pd triangular;
#N canvas 316 128 450 300 sawtooth 0;
#X floatatom 107 150 5 0 0 0 - - -, f 5;
#X obj 107 49 inlet;
#X obj 107 169 t f f;
#X obj 152 231 outlet;
#X obj 90 231 outlet;
#X connect 0 0 2 0;
#X connect 1 0 0 0;
#X connect 2 0 4 0;
#X connect 2 1 3 0;
#X restore 957 327 pd sawtooth;
#N canvas 316 128 450 300 square 1;
#X floatatom 107 150 5 0 0 0 - - -, f 5;
#X obj 107 49 inlet;
#X obj 107 169 t f f;
#X obj 90 231 outlet;
#X obj 107 128 expr if($f1/2-int($f1/2) > 0 \, 1/($f1) \, 0);
#X connect 0 0 2 0;
#X connect 1 0 4 0;
#X connect 2 0 3 0;
#X connect 4 0 0 0;
#X restore 863 375 pd square;
#X obj 931 716 list trim;
#X msg 1051 636;
#X obj 894 673 list prepend \; set;
#X obj 720 251 + 1;
#X obj 725 351 t f f;
#X obj 846 538 t f f;
#X obj 920 545 sel 0;
#X obj 956 575 s vco-until-\$0;
#X obj 803 192 r vco-until-\$0;
#X obj 659 276 t b b f f;
#X obj 826 233 bng 15 250 50 0 empty empty empty 17 7 0 10 -262144
-1 -1;
#X obj 853 268 hradio 15 1 0 8 empty empty empty 0 -8 0 10 -262144
-1 -1 2;
#X obj 681 113 bng 15 250 50 0 empty empty empty 17 7 0 10 -262144
-1 -1;
#X obj 631 129 bng 15 250 50 0 empty empty empty 17 7 0 10 -262144
-1 -1;
#X floatatom 928 431 5 0 0 0 - - -, f 5;
#X msg 551 160 \; vco-pamp 1 \;;
#X obj 928 409 r vco-pamp;
#X obj 433 404 r vco-f0;
#X floatatom 528 270 5 0 0 0 - - -, f 5;
#X obj 528 289 s vco-f0;
#X obj 531 222 bng 15 250 50 0 empty empty empty 17 7 0 10 -262144
-1 -1;
#X obj 557 112 bng 15 250 50 0 empty empty empty 17 7 0 10 -262144
-1 -1;
#X floatatom 1380 596 5 0 0 0 - - -, f 5;
#X connect 0 0 2 0;
#X connect 1 0 7 0;
#X connect 2 0 30 0;
#X connect 3 0 4 0;
#X connect 4 0 11 0;
#X connect 4 0 43 0;
#X connect 5 1 6 1;
#X connect 6 0 1 0;
#X connect 7 0 1 1;
#X connect 7 1 23 0;
#X connect 8 0 26 0;
#X connect 9 0 10 1;
#X connect 10 0 6 0;
#X connect 11 0 3 1;
#X connect 11 1 10 0;
#X connect 11 2 8 0;
#X connect 14 1 25 0;
#X connect 16 0 15 0;
#X connect 17 0 5 0;
#X connect 20 0 17 1;
#X connect 21 0 22 0;
#X connect 23 0 21 0;
#X connect 24 0 2 1;
#X connect 25 0 4 1;
#X connect 25 1 20 0;
#X connect 26 0 9 0;
#X connect 26 1 27 0;
#X connect 27 1 28 0;
#X connect 29 0 31 0;
#X connect 30 0 3 0;
#X connect 30 1 17 0;
#X connect 30 2 24 0;
#X connect 30 3 14 0;
#X connect 31 0 0 1;
#X connect 32 0 14 1;
#X connect 33 0 0 1;
#X connect 34 0 0 0;
#X connect 35 0 17 1;
#X connect 37 0 35 0;
#X connect 38 0 3 1;
#X connect 39 0 40 0;
#X connect 41 0 39 0;
#X connect 42 0 36 0;
#X coords 0 -1 1 1 285 260 1 200 100;
