#N canvas 15 22 450 300 10;
#X obj 252 84 inlet;
#X obj 252 106 s \$0-teste;
#X obj 253 168 r \$0-teste;
#X obj 253 190 outlet;
#X obj 196 190 print \$0;
#X connect 0 0 1 0;
#X connect 2 0 3 0;
#X connect 2 0 4 0;
