#N canvas 0 93 1366 675 10;
#X obj 141 119 vsl 15 128 0.1 3000 0 0 \$0-adsr-decay empty D 4 -9
0 10 -262144 -1 -1 6000 1;
#X obj 173 119 vsl 15 128 0.1 1 1 0 \$0-adsr-sustain empty S 4 -9 0
10 -262144 -1 -1 4100 1;
#X obj 205 119 vsl 15 128 0.2 5000 0 0 \$0-adsr-release empty R 4 -9
0 10 -262144 -1 -1 11300 1;
#X obj 112 119 vsl 15 128 0.2 3000 0 0 \$0-adsr-attack empty A 4 -9
0 10 -262144 -1 -1 3300 1;
#X obj 6 62 / 1000;
#X floatatom 103 252 4 0 0 0 - - -, f 4;
#X obj 135 364 / 1000;
#X floatatom 135 252 4 0 0 0 - - -, f 4;
#X floatatom 167 252 4 0 0 0 - - -, f 4;
#X obj 258 235 / 1000;
#X floatatom 199 252 4 0 0 0 - - -, f 4;
#X obj 793 244 sel 0;
#X obj 825 267 t f f;
#X text 807 227 (\$1);
#X text 879 355 (\$2);
#X text 922 393 (\$3);
#X text 898 427 (\$4);
#X obj 109 479 +;
#X obj 581 526 vline~;
#X obj 561 587 *~;
#X obj 549 386 sel 0;
#X obj 581 431 pack f f f;
#X msg 581 453 0 \$2 \$3;
#X obj 825 466 pack f f f f;
#X obj 138 15 bng 15 250 50 0 empty empty empty 17 7 0 10 -262144 -1
-1;
#X text 30 411 Calculation of relase delay. Release should start right
after attack + decay;
#X text 237 133 Controls for ADSR. The values are converted from miliseconds
to seconds for the GUI;
#X text 701 425 (\$3);
#X text 606 358 RELEASE;
#X text 840 329 ATTACK \, DECAY & SUSTAIN;
#X msg 825 488 \$1 \$2 0 \, \$3 \$4 \$2;
#X obj 6 40 r \$0-adsr-attack;
#X obj 165 305 r \$0-adsr-sustain;
#X obj 135 342 r \$0-adsr-decay;
#X obj 8 445 r \$0-adsr-attack;
#X obj 127 446 r \$0-adsr-decay;
#X obj 109 503 s \$0-adsr-release_delay;
#X obj 614 384 r \$0-adsr-release;
#X obj 648 408 r \$0-adsr-release_delay;
#X obj 852 371 r \$0-adsr-attack;
#X obj 213 543 r \$0-adsr-sustain;
#X obj 906 443 r \$0-adsr-decay;
#X obj 258 214 r \$0-adsr-release;
#X obj 562 627 outlet~;
#X obj 280 32 inlet~;
#X text 101 76 signal;
#X obj 473 28 inlet;
#X text 190 276 (f \, a);
#X obj 492 346 inlet;
#X obj 473 50 unpack f f;
#X obj 540 80 s 0$-adsr-amp;
#X obj 473 102 s 0$-adsr-freq;
#X obj 526 227 t b f f;
#X obj 526 204 r 0$-adsr-freq;
#X obj 280 54 s~ \$0-adsr-signal;
#X obj 438 513 r~ \$0-adsr-signal;
#X msg 492 369 1;
#X text 199 77 bang;
#X obj 110 534 r \$0-adsr-amp;
#X obj 189 584 *;
#X obj 189 606 s \$0-scaled-sustain;
#X obj 879 408 r \$0-scaled-sustain;
#X floatatom 164 641 5 0 0 0 - - -, f 5;
#X msg 532 157 1;
#X text 100 276 signal;
#X text 468 10 (f \, a);
#X text 492 327 bang;
#X text 280 16 signal;
#X obj 776 648 outlet;
#X obj 778 582 r 0$-adsr-freq;
#X obj 801 562 r 0$-adsr-amp;
#X obj 778 614 pack;
#X text 146 78 (f \, a);
#N canvas 0 50 450 250 (subpatch) 0;
#X array \$0-adsr-graph 11 float 1;
#A 0 0 0 0 0 0 0 0 0 0 0 0;
#X coords 0 1 11 -1 200 140 1 0 0;
#X restore 1108 477 graph;
#X obj 1042 153 tabwrite $-adsr-graph;
#X obj 1204 99 / 1000;
#X obj 1204 77 r \$0-adsr-attack;
#X obj 1015 42 r \$0-adsr-amp;
#X floatatom 1015 64 5 0 0 0 - - -, f 5;
#X floatatom 1204 121 5 0 0 0 - - -, f 5;
#X floatatom 65 511 5 0 0 0 - - -, f 5;
#X floatatom 148 468 5 0 0 0 - - -, f 5;
#X floatatom 8 467 5 0 0 0 - - -, f 5;
#X obj 581 475 print;
#X connect 4 0 5 0;
#X connect 6 0 7 0;
#X connect 9 0 10 0;
#X connect 11 1 12 0;
#X connect 12 0 23 0;
#X connect 17 0 36 0;
#X connect 17 0 80 0;
#X connect 18 0 19 1;
#X connect 19 0 43 0;
#X connect 20 1 21 0;
#X connect 21 0 22 0;
#X connect 22 0 18 0;
#X connect 22 0 83 0;
#X connect 23 0 30 0;
#X connect 24 0 3 0;
#X connect 24 0 0 0;
#X connect 24 0 1 0;
#X connect 24 0 2 0;
#X connect 30 0 18 0;
#X connect 31 0 4 0;
#X connect 32 0 8 0;
#X connect 33 0 6 0;
#X connect 34 0 17 0;
#X connect 34 0 82 0;
#X connect 35 0 81 0;
#X connect 35 0 17 0;
#X connect 37 0 21 1;
#X connect 38 0 21 2;
#X connect 39 0 23 1;
#X connect 40 0 59 0;
#X connect 41 0 23 3;
#X connect 42 0 9 0;
#X connect 44 0 54 0;
#X connect 46 0 49 0;
#X connect 48 0 56 0;
#X connect 49 0 51 0;
#X connect 49 1 50 0;
#X connect 52 0 24 0;
#X connect 52 1 20 0;
#X connect 52 2 11 0;
#X connect 53 0 52 0;
#X connect 55 0 19 0;
#X connect 56 0 20 0;
#X connect 58 0 59 0;
#X connect 59 0 60 0;
#X connect 59 0 62 0;
#X connect 61 0 23 2;
#X connect 63 0 52 0;
#X connect 69 0 71 0;
#X connect 70 0 71 1;
#X connect 71 0 68 0;
#X connect 75 0 79 0;
#X connect 76 0 75 0;
#X connect 77 0 78 0;
#X coords 0 -1 1 1 132 216 2 100 75;
