#N canvas 0 22 781 474 10;
#X obj 118 420 *~;
#X obj 272 421 *~;
#X obj 136 284 hsl 128 15 0 1 0 0 empty empty empty -2 -8 0 10 -262144
-1 -1 12700 1;
#X obj 290 284 hsl 128 15 0 1 0 0 empty empty empty -2 -8 0 10 -262144
-1 -1 0 1;
#X text 387 163 This patch is a modified version from an example showed
in class \, called "ExemploCrossfade.pd";
#X obj 136 98 hsl 128 15 0 1 0 0 empty empty empty -2 -8 0 10 -262144
-1 -1 0 1;
#X floatatom 133 303 5 0 0 0 - - -, f 5;
#X floatatom 287 303 5 0 0 0 - - -, f 5;
#X obj 287 257 expr sqrt(1-pow($f1 \, 2));
#X obj 287 228 -;
#X obj 286 185 t b f;
#X msg 286 207 1;
#X obj 133 257 expr sqrt(1-pow($f1 \, 2));
#X text 132 79 Dry;
#X text 244 79 Wet;
#X obj 133 156 t f f;
#X text 217 367 Wet Signal;
#X text 67 363 Dry Signal;
#X obj 82 386 inlet~;
#X obj 236 388 inlet~;
#X obj 343 76 inlet;
#X obj 118 453 outlet~;
#X connect 0 0 21 0;
#X connect 1 0 21 0;
#X connect 2 0 6 0;
#X connect 3 0 7 0;
#X connect 5 0 15 0;
#X connect 6 0 0 1;
#X connect 7 0 1 1;
#X connect 8 0 3 0;
#X connect 9 0 8 0;
#X connect 10 0 11 0;
#X connect 10 1 9 1;
#X connect 11 0 9 0;
#X connect 12 0 2 0;
#X connect 15 0 12 0;
#X connect 15 1 10 0;
#X connect 18 0 0 0;
#X connect 19 0 1 0;
#X connect 20 0 5 0;
#X coords 0 -1 1 1 139 40 2 130 75;
