#N canvas 79 22 956 752 10;
#X obj 149 145 openpanel;
#X obj 149 105 bng 15 250 50 0 empty empty empty 17 7 0 10 -262144
-1 -1;
#X msg 149 167 read -resize \$1 Coeff;
#N canvas 0 22 450 278 (subpatch) 0;
#X array Coeff 256 float 0;
#X coords 0 1 255 -1 220 90 1 0 0;
#X restore 441 137 graph;
#X obj 149 189 soundfiler;
#X floatatom 227 291 5 0 0 0 Coef_Size - -, f 5;
#X text 286 169 Block size;
#N canvas 0 22 450 278 (subpatch) 0;
#X array \$0-Frequency_Response 128 float 1;
#A 0 0 0 0 0 0 0 0 0 0 0 0 0 0 0 0 0 0 0 0 0 0 0 0 0 0 0 0 0 0 0 0
0 0 0 0 0 0 0 0 0 0 0 0 0 0 0 0 0 0 0 0 0 0 0 0 0 0 0 0 0 0 0 0 0 0
0 0 0 0 0 0 0 0 0 0 0 0 0 0 0 0 0 0 0 0 0 0 0 0 0 0 0 0 0 0 0 0 0 0
0 0 0 0 0 0 0 0 0 0 0 0 0 0 0 0 0 0 0 0 0 0 0 0 0 0 0 0 0;
#X coords 0 64 127 -1 220 90 1 0 0;
#X restore 441 242 graph;
#X obj 424 488 tabwrite~ \$0-Frequency_Response;
#X obj 676 442 tgl 15 0 empty empty empty 17 7 0 10 -262144 -1 -1 1
1;
#X obj 676 471 metro 50;
#X obj 587 85 bng 25 250 50 0 empty empty Open_Coefficient_File 27
9 0 10 -262144 -1 -1;
#X obj 755 110 s \$0-fir-panel;
#X obj 149 74 r \$0-fir-panel;
#X text 571 52 FIR;
#X obj 666 137 vsl 15 192 0 127 0 1 \$0-fir-gain empty gain -7 -8 0
10 -225271 -42246 -90881 12100 1;
#X obj 687 132 vu 15 200 empty empty 8 -8 0 10 -66577 -1 1 0;
#X obj 696 21 r \$0-fir-vu;
#N canvas 495 112 864 531 Fir 1;
#X text 44 159 based on iemlib implementation:;
#X text 115 208 IEM KUG;
#X text 99 196 musil;
#X text 129 196 @;
#X text 135 196 iem.at;
#X text 98 218 Graz \, Austria;
#X text 50 185 Thomas Musil 2000 - 2005;
#X obj 242 63 inlet~;
#X obj 242 183 iemlib/FIR~ Coeff 256;
#X msg 292 152 set Coeff \$1;
#X obj 289 233 outlet~;
#X obj 292 77 inlet;
#X connect 7 0 8 0;
#X connect 8 0 10 0;
#X connect 9 0 8 0;
#X connect 11 0 9 0;
#X restore 194 334 pd Fir;
#X obj 128 317 inlet~;
#X text 158 120 based on EP2 implementation;
#X obj 676 401 loadbang;
#X msg 676 423 1;
#X text 428 41 Input;
#X text 427 342 Output;
#X obj 425 434 rfft~;
#X obj 424 463 cyclone/cartopol~;
#X obj 551 377 block~ 256;
#X obj 425 406 windowing/blackman~;
#X obj 233 422 vsl 15 128 0 127 0 1 empty \$0-fir-gain gain -7 -8 0
10 -225271 -42246 -90881 8046 1;
#X floatatom 180 580 5 0 0 0 - - -, f 5;
#X obj 128 553 iemlib/gainvu~ 300;
#X obj 128 607 outlet~;
#X obj 234 578 s \$0-fir-vu;
#X obj 128 366 abs/drywet~;
#X obj 449 85 hsl 128 25 0 1 0 0 \$0-fir-drywet empty Dry--------Wet
3 12 0 15 -262144 -1 -1 0 1;
#X obj 260 342 r \$0-fir-drywet;
#X connect 0 0 2 0;
#X connect 1 0 0 0;
#X connect 2 0 4 0;
#X connect 4 0 5 0;
#X connect 5 0 18 1;
#X connect 9 0 10 0;
#X connect 10 0 8 0;
#X connect 11 0 12 0;
#X connect 13 0 1 0;
#X connect 17 0 16 0;
#X connect 18 0 34 1;
#X connect 19 0 18 0;
#X connect 19 0 34 0;
#X connect 21 0 22 0;
#X connect 22 0 9 0;
#X connect 25 0 26 0;
#X connect 25 1 26 1;
#X connect 26 0 8 0;
#X connect 28 0 25 0;
#X connect 29 0 31 1;
#X connect 31 0 32 0;
#X connect 31 1 30 0;
#X connect 31 2 33 0;
#X connect 34 0 31 0;
#X connect 34 0 28 0;
#X connect 36 0 34 2;
#X coords 0 -1 1 1 320 320 2 425 40;
