#N canvas 152 22 870 669 10;
#X floatatom 312 472 5 0 0 0 - - -, f 5;
#X obj 312 446 mtof;
#X obj 312 498 osc~;
#X obj 312 329 unpack;
#X obj 312 384 stripnote;
#X floatatom 312 419 5 0 0 0 - - -, f 5;
#X obj 386 244 bng 15 250 50 0 empty empty empty 17 7 0 10 -262144
-1 -1;
#X obj 312 71 openpanel;
#X msg 344 128 read \$1;
#X obj 312 97 t b s;
#X obj 312 218 cyclone/seq;
#X msg 386 264 0;
#X text 405 243 Final do sequenciamento.;
#X obj 312 299 cyclone/midiparse;
#X obj 151 513 *~;
#X text 352 418 Número MIDI;
#X text 353 470 Hertz;
#X floatatom 312 351 5 0 0 0 - - -, f 5;
#X floatatom 372 346 5 0 0 0 - - -, f 5;
#X text 270 350 pitch;
#X text 412 344 velocity;
#X msg 409 145 stop;
#X obj 195 529 env~;
#X floatatom 195 553 5 0 0 0 - - -, f 5;
#X msg 168 317 \$1 5;
#X obj 168 380 line~;
#X text 399 474 frequency;
#X text 244 574 amplitude;
#X obj 330 605 pack f f;
#X obj 330 627 outlet;
#X obj 519 507 outlet;
#X text 522 524 bang;
#X obj 519 455 sel 0;
#X obj 519 480 bng 15 250 50 0 empty empty empty 17 7 0 10 -262144
-1 -1;
#X obj 61 54 bng 15 250 50 0 empty Open_MIDI-0 Open_MIDI 17 7 0 10
-262144 -1 -1;
#X obj 61 74 bng 15 250 50 0 empty MIDI_Stop-0 Stop 17 7 0 10 -262144
-1 -1;
#X obj 61 94 bng 15 250 50 0 empty MIDI_Play-0 Play 17 7 0 10 -262144
-1 -1;
#X obj 116 74 flatgui/knob 40 40 0 1 0 0 empty MIDI_Knob-0 empty 0
-8 0 8 3.7345e+06 1 3.81397e+06 0 1;
#X text 74 31 MIDI READER;
#X text 50 114 (f \, a);
#X text 138 114 bang;
#X connect 0 0 2 0;
#X connect 0 0 28 0;
#X connect 1 0 0 0;
#X connect 2 0 14 0;
#X connect 3 0 17 0;
#X connect 3 1 18 0;
#X connect 4 0 5 0;
#X connect 5 0 1 0;
#X connect 6 0 11 0;
#X connect 7 0 9 0;
#X connect 8 0 10 0;
#X connect 9 0 10 0;
#X connect 9 1 8 0;
#X connect 10 0 13 0;
#X connect 10 1 6 0;
#X connect 11 0 2 0;
#X connect 13 0 3 0;
#X connect 14 0 22 0;
#X connect 17 0 4 0;
#X connect 18 0 4 1;
#X connect 18 0 32 0;
#X connect 21 0 10 0;
#X connect 21 0 6 0;
#X connect 21 0 33 0;
#X connect 22 0 23 0;
#X connect 23 0 28 1;
#X connect 24 0 25 0;
#X connect 25 0 14 1;
#X connect 28 0 29 0;
#X connect 32 0 33 0;
#X connect 33 0 30 0;
#X connect 34 0 7 0;
#X connect 35 0 21 0;
#X connect 36 0 10 0;
#X connect 37 0 24 0;
#X coords 0 -1 1 1 120 105 2 50 25;
