#N canvas 195 93 683 675 10;
#X obj 373 45 hsl 128 15 0 1 0 0 empty \$0-dry_wet empty -2 -8 0 10
-262144 -1 -1 0 1;
#X obj 370 65 t b f;
#X msg 370 87 1;
#X obj 370 109 -;
#X text 367 29 dry;
#X text 481 29 wet;
#X msg 370 131 dry \$1;
#X msg 318 131 wet \$1;
#X obj 107 104 hsl 128 15 0 1 0 0 \$0-dry_wet empty Dry--------------Wet
5 8 0 10 -262144 -1 -1 0 1;
#X obj 124 126 hsl 70 18 0 1 0 0 0$-roomsize empty roomsize 3 9 0 10
-262144 -1 -1 0 1;
#X obj 124 170 hsl 70 18 0 1 0 0 0$-width empty width 4 9 0 10 -262144
-1 -1 0 1;
#X obj 124 148 hsl 70 18 0 2 0 0 0$-damping empty damping 3 9 0 10
-262144 -1 -1 0 1;
#X obj 161 192 tgl 14 0 0$-first_pass empty first_pass 17 7 0 10 -262144
-1 -1 0 1;
#X obj 104 193 tgl 14 0 0$-freeze empty freeze 17 7 0 10 -262144 -1
-1 0 1;
#X msg 549 151 roomsize \$1;
#X msg 549 204 width \$1;
#X obj 423 427 freeverb~;
#X obj 303 299 tgl 15 0 empty 0$-freeze empty 17 7 0 10 -262144 -1
-1 0 1;
#X msg 303 321 freeze \$1;
#X obj 188 335 tgl 15 0 empty 0$-first_pass empty 17 7 0 10 -262144
-1 -1 0 1;
#X msg 188 357 firstpassfilter \$1;
#X floatatom 198 128 3 0 0 0 - - -, f 3;
#X floatatom 198 172 3 0 0 0 - - -, f 3;
#X floatatom 198 150 3 0 0 0 - - -, f 3;
#X msg 551 260 damping \$1;
#X text 145 84 REVERB;
#X obj 393 509 outlet~;
#X obj 21 18 inlet~;
#X obj 107 19 inlet;
#X obj 107 41 unpack f f;
#X floatatom 107 63 5 0 0 0 - - -, f 5;
#X floatatom 174 63 5 0 0 0 - - -, f 5;
#X obj 521 507 outlet~;
#X text 398 494 signal left;
#X text 526 486 signal right;
#X obj 549 129 r 0$-roomsize;
#X obj 551 238 r 0$-damping;
#X obj 549 182 r 0$-width;
#X text 20 2 signal;
#X text 105 4 (f \, a);
#X text 101 209 L;
#X text 224 209 R;
#X text 101 82 ~;
#X text 215 82 f/a;
#X connect 0 0 1 0;
#X connect 0 0 7 0;
#X connect 1 0 2 0;
#X connect 1 1 3 1;
#X connect 2 0 3 0;
#X connect 3 0 6 0;
#X connect 6 0 16 0;
#X connect 7 0 16 0;
#X connect 14 0 16 0;
#X connect 15 0 16 0;
#X connect 16 0 26 0;
#X connect 16 1 32 0;
#X connect 17 0 18 0;
#X connect 18 0 16 0;
#X connect 19 0 20 0;
#X connect 20 0 16 0;
#X connect 24 0 16 0;
#X connect 27 0 16 0;
#X connect 28 0 29 0;
#X connect 29 0 30 0;
#X connect 29 1 31 0;
#X connect 35 0 14 0;
#X connect 35 0 21 0;
#X connect 36 0 24 0;
#X connect 36 0 23 0;
#X connect 37 0 15 0;
#X connect 37 0 22 0;
#X coords 0 -1 1 1 140 145 2 100 80;
