#N canvas 365 129 533 391 10;
#X obj 263 167 *~;
#X obj 311 71 hsl 128 15 0 10000 0 0 empty \$0-ringmod-freq empty -2
-8 0 10 -262144 -1 -1 0 1;
#X obj 309 93 osc~;
#X obj 313 223 tabwrite~ \$0-ringmod-graph;
#X obj 340 152 tgl 15 0 empty empty empty 17 7 0 10 -262144 -1 -1 1
1;
#X obj 340 174 metro 100;
#N canvas 0 119 450 250 (subpatch) 0;
#X array \$0-ringmod-graph 120 float 5;
#A 0 0 0 0 0 0 0 0 0 0 0 0 0 0 0 0 0 0 0 0 0 0 0 0 0 0 0 0 0 0 0 0
0 0 0 0 0 0 0 0 0 0 0 0 0 0 0 0 0 0 0 0 0 0 0 0 0 0 0 0 0 0 0 0 0 0
0 0 0 0 0 0 0 0 0 0 0 0 0 0 0 0 0 0 0 0 0 0 0 0 0 0 0 0 0 0 0 0 0 0
0 0 0 0 0 0 0 0 0 0 0 0 0 0 0 0 0 0 0 0 0;
#X coords 0 500 119 -500 120 80 2 0 0;
#X restore 131 169 graph;
#X obj 264 21 inlet~;
#X text 265 4 signal;
#X text 130 100 RING MODULATION;
#X obj 81 168 vsl 15 80 0 35 0 0 \$0-ringmod-freq-low empty empty 0
-9 0 10 -262144 -1 -1 0 1;
#X obj 245 359 outlet~;
#X obj 312 51 hsl 128 15 0 35 0 0 empty \$0-ringmod-freq-low empty
-2 -8 0 10 -262144 -1 -1 0 1;
#X obj 102 168 vsl 15 80 0 10000 0 0 \$0-ringmod-freq empty empty 0
-9 0 10 -262144 -1 -1 0 1;
#X text 84 188 L;
#X text 84 198 o;
#X text 105 187 H;
#X text 105 197 i;
#X text 73 102 In;
#X text 71 260 Out;
#X obj 412 113 loadbang;
#X obj 197 305 abs/drywet~;
#X obj 98 132 hsl 128 15 0 1 0 0 \$0-ring-drywet empty Dry--------------Wet
5 7 0 10 -262144 -1 -1 0 1;
#X obj 329 277 r \$0-ring-drywet;
#X obj 178 47 s~ \$0-ring-inlet;
#X obj 154 282 r~ \$0-ring-inlet;
#X connect 0 0 3 0;
#X connect 0 0 21 1;
#X connect 1 0 2 0;
#X connect 2 0 0 1;
#X connect 4 0 5 0;
#X connect 5 0 3 0;
#X connect 7 0 0 0;
#X connect 7 0 24 0;
#X connect 12 0 2 0;
#X connect 20 0 4 0;
#X connect 21 0 11 0;
#X connect 23 0 21 2;
#X connect 25 0 21 0;
#X coords 0 -1 1 1 185 175 2 70 100;
