#N canvas 1 22 1040 752 10;
#X obj 1 2 cnv 300 300 300 \$0-c2 \$0-cc empty 20 12 0 14 -84067 -66577
0;
#X obj 725 195 cyclone/mousestate;
#X floatatom 752 246 5 0 0 0 - - -, f 5;
#X floatatom 833 246 5 0 0 0 - - -, f 5;
#X floatatom 686 284 5 0 0 0 - - -, f 5;
#X obj 686 303 sel 1;
#X obj 686 361 bng 15 250 50 0 empty empty empty 17 7 0 10 -262144
-1 -1;
#X obj 306 32 vradio 15 1 0 2 \$0-cal-switch empty empty 0 -8 0 10
-262144 -1 -1 0;
#X obj 529 85 tgl 15 0 empty empty empty 17 7 0 10 -262144 -1 -1 0
1;
#X obj 495 112 spigot;
#X obj 488 138 bng 15 250 50 0 empty empty empty 17 7 0 10 -262144
-1 -1;
#X msg 490 15 0;
#X obj 529 62 del 100;
#X floatatom 833 313 5 0 0 0 - - -, f 5;
#X floatatom 752 313 5 0 0 0 - - -, f 5;
#N canvas 534 62 466 413 amplitud 0;
#X obj 125 53 inlet;
#X obj 165 125 - 300;
#X obj 165 155 * 10;
#X obj 165 177 / 300;
#X obj 173 261 pow;
#X obj 171 201 t b f;
#X msg 171 223 10;
#X floatatom 173 283 15 0 0 0 - - -, f 15;
#X obj 173 357 outlet;
#X obj 171 317 expr if($f1>1 \, 1 \, if($f1<1e-10 \, 1e-10 \, $f1))
;
#X connect 0 0 1 0;
#X connect 1 0 2 0;
#X connect 2 0 3 0;
#X connect 3 0 5 0;
#X connect 4 0 7 0;
#X connect 5 0 6 0;
#X connect 5 1 4 1;
#X connect 6 0 4 0;
#X connect 7 0 9 0;
#X connect 9 0 8 0;
#X restore 752 330 pd amplitud;
#X floatatom 102 309 15 0 0 3 Amplitude - -, f 15;
#N canvas 395 130 447 377 frequ 0;
#X obj 139 69 inlet;
#X obj 141 105 - 300;
#X obj 141 157 / 300;
#X obj 149 241 pow;
#X obj 147 181 t b f;
#X msg 147 203 10;
#X floatatom 148 287 15 0 0 0 - - -, f 15;
#X obj 145 352 outlet;
#X obj 141 135 * 3;
#X obj 149 263 * 20000;
#X obj 152 321 expr if($f1>20000 \, 20000 \, if($f1<20 \, 20 \, $f1))
;
#X connect 0 0 1 0;
#X connect 1 0 8 0;
#X connect 2 0 4 0;
#X connect 3 0 9 0;
#X connect 4 0 5 0;
#X connect 4 1 3 1;
#X connect 5 0 3 0;
#X connect 6 0 10 0;
#X connect 8 0 2 0;
#X connect 9 0 6 0;
#X connect 10 0 7 0;
#X restore 826 330 pd frequ;
#X floatatom 8 309 15 0 0 3 Frequency - -, f 15;
#X obj 725 119 loadbang;
#X obj 698 406 spigot;
#X obj 527 388 tgl 15 0 empty \$0-th-activate empty 17 7 0 10 -262144
-1 -1 0 1;
#X obj 698 428 t b b;
#X obj 762 390 key;
#X obj 762 412 sel 32;
#X msg 762 461 0;
#X obj 571 624 snapshot~;
#X obj 415 560 tgl 15 0 empty empty empty 17 7 0 10 -262144 -1 -1 1
1;
#X obj 720 624 snapshot~;
#X obj 414 607 t b b;
#X obj 369 672 unpack f f;
#X floatatom 369 694 10 0 0 0 - - -, f 10;
#X floatatom 439 695 10 0 0 0 - - -, f 10;
#X obj 517 336 sel 1;
#X msg 517 358 0, f 1;
#X msg 536 358 1, f 1;
#X obj 686 381 t b b;
#X obj 601 703 outlet;
#X obj 205 304 vradio 15 1 0 2 empty \$0-the-control empty 0 -8 0 10
-262144 -1 -1 0;
#X obj 417 511 loadbang;
#X msg 416 536 1;
#X obj 387 156 s \$0-dur;
#X obj 389 103 loadbang;
#X msg 389 125 1000;
#X floatatom 305 142 5 0 0 3 rampDuration - -, f 5;
#X text 225 303 Event_off;
#X text 227 320 Event_on (space to off);
#X text 311 223 THEREMIN;
#X text 317 235 CANVAS;
#X obj 828 485 outlet;
#X obj 826 460 bng 15 250 50 0 empty empty empty 17 7 0 10 -262144
-1 -1;
#X obj 414 581 metro 40;
#X obj 330 269 tgl 15 0 \$0-th-activate empty Activate -10 22 0 8 -262144
-1 -1 0 1;
#X text 573 29 Calibrate on/off mechanism;
#X obj 488 167 s \$0-calib;
#X obj 526 30 bng 15 250 50 0 empty empty empty 17 7 0 10 -262144 -1
-1;
#X obj 526 8 r \$0-th-click;
#X obj 596 428 s \$0-th-click;
#X obj 517 294 vradio 15 1 0 2 empty \$0-cal-switch empty 0 -8 0 10
-262144 -1 -1 0;
#X text 322 46 calibrar;
#X text 535 309 calibrate;
#X obj 722 350 s \$0-th-amplitud;
#X obj 826 350 s \$0-th-frequ;
#X text 547 389 Activate;
#X obj 6 354 r \$0-th-frequ;
#X obj 102 353 r \$0-th-amplitud;
#N canvas 735 116 248 297 calibration 0;
#X obj 60 160 f;
#X floatatom 60 182 5 0 0 0 - - -, f 5;
#X obj 134 154 f;
#X floatatom 134 176 5 0 0 0 - - -, f 5;
#X obj 122 205 -;
#X obj 48 205 -;
#X obj 172 96 r \$0-calib;
#X obj 92 113 t b b;
#X obj 48 28 inlet;
#X obj 122 30 inlet;
#X obj 48 54 t f f;
#X obj 122 55 t f f;
#X obj 48 229 outlet;
#X obj 122 229 outlet;
#X text 180 77 bang;
#X connect 0 0 1 0;
#X connect 1 0 5 1;
#X connect 2 0 3 0;
#X connect 3 0 4 1;
#X connect 4 0 13 0;
#X connect 5 0 12 0;
#X connect 6 0 7 0;
#X connect 7 0 0 0;
#X connect 7 1 2 0;
#X connect 8 0 10 0;
#X connect 9 0 11 0;
#X connect 10 0 5 0;
#X connect 10 1 0 1;
#X connect 11 0 4 0;
#X connect 11 1 2 1;
#X restore 752 268 pd calibration;
#X obj 122 392 s \$0-th-amp-val;
#X obj 720 535 r \$0-th-amp-val;
#X obj 6 391 s \$0-th-freq-val;
#X obj 571 534 r \$0-th-freq-val;
#N canvas 887 89 408 439 event_mechanism_amp 0;
#X obj 195 185 f;
#X obj 227 52 vradio 15 1 0 2 empty empty empty 0 -8 0 10 -262144 -1
-1 0;
#X obj 78 183 f;
#X obj 78 257 t b f;
#X msg 78 279 1;
#X obj 234 239 r \$0-dur;
#X obj 195 261 pack f f;
#X obj 195 296 line~;
#X obj 78 104 zexy/demultiplex 1 2;
#X msg 110 279 \$1;
#X obj 125 159 t f f;
#X obj 125 137 inlet;
#X obj 195 361 outlet~;
#X obj 184 22 inlet;
#X obj 228 22 inlet;
#X text 243 52 Event_off;
#X text 245 69 Event_on (space to off);
#X text 104 183 First click;
#X text 221 179 Remaining clicks during the event;
#X floatatom 78 205 5 0 0 0 - - -, f 5;
#X obj 275 22 r \$0-ev_on-amp;
#X obj 78 320 s \$0-ev_on-amp;
#X connect 0 0 6 0;
#X connect 1 0 8 1;
#X connect 2 0 3 0;
#X connect 2 0 19 0;
#X connect 3 0 4 0;
#X connect 3 1 9 0;
#X connect 4 0 21 0;
#X connect 5 0 6 1;
#X connect 6 0 7 0;
#X connect 7 0 12 0;
#X connect 8 0 2 0;
#X connect 8 1 0 0;
#X connect 9 0 7 0;
#X connect 10 0 2 1;
#X connect 10 1 0 1;
#X connect 11 0 10 0;
#X connect 13 0 8 0;
#X connect 14 0 1 0;
#X connect 20 0 1 0;
#X restore 720 559 pd event_mechanism_amp;
#N canvas 875 86 408 439 event_mechanism_freq 0;
#X obj 195 185 f;
#X obj 227 52 vradio 15 1 0 2 \$0-the-control empty empty 0 -8 0 10
-262144 -1 -1 0;
#X obj 78 183 f;
#X obj 78 257 t b f;
#X msg 78 299 1;
#X obj 234 239 r \$0-dur;
#X obj 195 261 pack f f;
#X obj 195 296 line~;
#X obj 78 104 zexy/demultiplex 1 2;
#X msg 110 279 \$1;
#X obj 125 159 t f f;
#X obj 125 137 inlet;
#X obj 195 361 outlet~;
#X obj 184 22 inlet;
#X obj 228 22 inlet;
#X text 243 52 Event_off;
#X text 245 69 Event_on (space to off);
#X text 221 179 Remaining clicks during the event;
#X text 104 183 First click;
#X floatatom 78 205 5 0 0 0 - - -, f 5;
#X floatatom 195 207 5 0 0 0 - - -, f 5;
#X obj 78 320 s \$0-ev_on-freq;
#X obj 275 22 r \$0-ev_on-freq;
#X connect 0 0 6 0;
#X connect 0 0 20 0;
#X connect 1 0 8 1;
#X connect 2 0 3 0;
#X connect 2 0 19 0;
#X connect 3 0 4 0;
#X connect 3 1 9 0;
#X connect 4 0 21 0;
#X connect 5 0 6 1;
#X connect 6 0 7 0;
#X connect 7 0 12 0;
#X connect 8 0 2 0;
#X connect 8 1 0 0;
#X connect 9 0 7 0;
#X connect 10 0 2 1;
#X connect 10 1 0 1;
#X connect 11 0 10 0;
#X connect 13 0 8 0;
#X connect 14 0 1 0;
#X connect 22 0 1 0;
#X restore 571 559 pd event_mechanism_freq;
#X obj 762 487 t f f;
#X text 847 457 bang end of event;
#X obj 601 655 pack f f;
#X text 647 703 (f \, a);
#X text 254 672 (f \, a) in realtime;
#X obj 824 433 spigot;
#X msg 725 145 poll;
#X connect 1 0 4 0;
#X connect 1 1 2 0;
#X connect 1 2 3 0;
#X connect 2 0 66 0;
#X connect 3 0 66 1;
#X connect 4 0 5 0;
#X connect 5 0 6 0;
#X connect 6 0 36 0;
#X connect 7 0 12 0;
#X connect 8 0 9 1;
#X connect 9 0 10 0;
#X connect 10 0 11 0;
#X connect 10 0 54 0;
#X connect 11 0 7 0;
#X connect 12 0 8 0;
#X connect 13 0 17 0;
#X connect 14 0 15 0;
#X connect 15 0 61 0;
#X connect 16 0 67 0;
#X connect 17 0 62 0;
#X connect 18 0 69 0;
#X connect 19 0 79 0;
#X connect 20 0 22 0;
#X connect 21 0 20 1;
#X connect 21 0 78 1;
#X connect 22 0 72 1;
#X connect 22 1 71 1;
#X connect 23 0 24 0;
#X connect 24 0 25 0;
#X connect 24 0 78 0;
#X connect 25 0 73 0;
#X connect 26 0 75 0;
#X connect 27 0 51 0;
#X connect 28 0 75 1;
#X connect 29 0 26 0;
#X connect 29 1 28 0;
#X connect 30 0 31 0;
#X connect 30 1 32 0;
#X connect 33 0 34 0;
#X connect 33 1 35 0;
#X connect 34 0 21 0;
#X connect 35 0 21 0;
#X connect 36 0 57 0;
#X connect 36 1 20 0;
#X connect 39 0 40 0;
#X connect 40 0 27 0;
#X connect 42 0 43 0;
#X connect 43 0 44 0;
#X connect 44 0 41 0;
#X connect 50 0 49 0;
#X connect 51 0 29 0;
#X connect 55 0 9 0;
#X connect 56 0 55 0;
#X connect 58 0 33 0;
#X connect 64 0 18 0;
#X connect 65 0 16 0;
#X connect 66 0 14 0;
#X connect 66 1 13 0;
#X connect 68 0 71 0;
#X connect 70 0 72 0;
#X connect 71 0 28 0;
#X connect 72 0 26 0;
#X connect 73 0 72 2;
#X connect 73 1 71 2;
#X connect 75 0 30 0;
#X connect 75 0 37 0;
#X connect 78 0 50 0;
#X connect 79 0 1 0;
#X coords 0 -1 1 1 377 340 2 0 0;
