#N canvas 3 31 1280 675 10;
#X obj 0 2 cnv 300 300 300 \$0-c2 \$0-cc empty 20 12 0 14 -99865 -66577
0;
#X obj 876 102 cyclone/mousestate;
#X floatatom 903 153 5 0 0 0 - - -, f 5;
#X floatatom 929 136 5 0 0 0 - - -, f 5;
#X floatatom 876 204 5 0 0 0 - - -, f 5;
#X obj 876 60 tgl 15 0 empty empty empty 17 7 0 10 -262144 -1 -1 1
1;
#X obj 876 80 metro 20;
#X obj 871 230 sel 1;
#X obj 875 281 bng 15 250 50 0 empty empty empty 17 7 0 10 -262144
-1 -1;
#X obj 306 32 vradio 15 1 0 2 \$0-cal-switch empty empty 0 -8 0 10
-262144 -1 -1 0;
#X obj 558 85 tgl 15 0 empty empty empty 17 7 0 10 -262144 -1 -1 0
1;
#X obj 524 112 spigot;
#X obj 517 138 bng 15 250 50 0 empty empty empty 17 7 0 10 -262144
-1 -1;
#X msg 517 44 0;
#X obj 558 62 del 100;
#X obj 732 167 f;
#X floatatom 732 189 5 0 0 0 - - -, f 5;
#X obj 762 150 f;
#X floatatom 762 172 5 0 0 0 - - -, f 5;
#X obj 790 259 -;
#X obj 708 272 -;
#X floatatom 790 281 5 0 0 0 - - -, f 5;
#X floatatom 708 294 5 0 0 0 - - -, f 5;
#N canvas 534 62 466 413 amplitud 0;
#X obj 125 53 inlet;
#X obj 165 125 - 300;
#X obj 165 155 * 10;
#X obj 165 177 / 300;
#X obj 173 261 pow;
#X obj 171 201 t b f;
#X msg 171 223 10;
#X floatatom 173 283 15 0 0 0 - - -, f 15;
#X obj 173 357 outlet;
#X obj 171 317 expr if($f1>1 \, 1 \, if($f1<1e-10 \, 1e-10 \, $f1))
;
#X connect 0 0 1 0;
#X connect 1 0 2 0;
#X connect 2 0 3 0;
#X connect 3 0 5 0;
#X connect 4 0 7 0;
#X connect 5 0 6 0;
#X connect 5 1 4 1;
#X connect 6 0 4 0;
#X connect 7 0 9 0;
#X connect 9 0 8 0;
#X restore 712 313 pd amplitud;
#X floatatom 102 309 15 0 0 3 Amplitude - -, f 15;
#N canvas 395 130 447 377 frequ 0;
#X obj 139 69 inlet;
#X obj 141 105 - 300;
#X obj 141 157 / 300;
#X obj 149 241 pow;
#X obj 147 181 t b f;
#X msg 147 203 10;
#X floatatom 148 287 15 0 0 0 - - -, f 15;
#X obj 145 352 outlet;
#X obj 141 135 * 3;
#X obj 149 263 * 20000;
#X obj 152 321 expr if($f1>20000 \, 20000 \, if($f1<20 \, 20 \, $f1))
;
#X connect 0 0 1 0;
#X connect 1 0 8 0;
#X connect 2 0 4 0;
#X connect 3 0 9 0;
#X connect 4 0 5 0;
#X connect 4 1 3 1;
#X connect 5 0 3 0;
#X connect 6 0 10 0;
#X connect 8 0 2 0;
#X connect 9 0 6 0;
#X connect 10 0 7 0;
#X restore 789 297 pd frequ;
#X floatatom 8 309 15 0 0 3 Frequency - -, f 15;
#X obj 878 12 loadbang;
#X msg 878 34 1;
#X obj 885 463 f;
#X obj 1059 469 f;
#X obj 888 326 spigot;
#X obj 1114 260 tgl 15 0 empty empty empty 17 7 0 10 -262144 -1 -1
1 1;
#X obj 888 348 t b b;
#X obj 1059 513 line~;
#X obj 1068 396 vradio 15 1 0 2 empty empty empty 0 -8 0 10 -262144
-1 -1 1;
#X obj 880 397 vradio 15 1 0 2 \$0-the-control empty empty 0 -8 0 10
-262144 -1 -1 1;
#X obj 1199 438 key;
#X obj 1199 460 sel 32;
#X msg 1169 495 0;
#X obj 817 459 f;
#X obj 981 461 f;
#X obj 815 482 t b f;
#X obj 981 483 t b f;
#X msg 815 504 1;
#X msg 981 505 1;
#X obj 926 541 snapshot~;
#X obj 528 466 tgl 15 0 empty empty empty 17 7 0 10 -262144 -1 -1 1
1;
#X obj 1020 544 snapshot~;
#X obj 524 512 t b b;
#X obj 559 578 unpack f f;
#X floatatom 559 600 10 0 0 0 - - -, f 10;
#X floatatom 629 601 10 0 0 0 - - -, f 10;
#X obj 931 572 cyclone/pak f f;
#X obj 1086 199 sel 1;
#X msg 1086 221 0;
#X msg 1134 221 1;
#X obj 876 301 t b b;
#X obj 820 623 outlet;
#X obj 205 304 vradio 15 1 0 2 empty \$0-the-control empty 0 -8 0 10
-262144 -1 -1 1;
#X obj 530 417 loadbang;
#X msg 529 442 1;
#X obj 387 156 s \$0-dur;
#X obj 1100 466 r \$0-dur;
#X obj 924 463 r \$0-dur;
#X obj 1058 492 pack f f;
#X obj 885 485 pack f f;
#X obj 389 103 loadbang;
#X msg 389 125 1000;
#X floatatom 305 142 5 0 0 3 rampDuration - -, f 5;
#X text 225 303 Event_off;
#X text 227 320 Event_on (space to off);
#X text 311 223 THEREMIN;
#X text 317 235 CANVAS;
#X obj 1207 510 outlet;
#X obj 1205 485 bng 15 250 50 0 empty empty empty 17 7 0 10 -262144
-1 -1;
#X obj 889 512 line~;
#X obj 815 438 zexy/demultiplex 1 2;
#X obj 527 487 metro 40;
#X obj 981 439 zexy/demultiplex 0 1;
#X msg 847 504 \$1;
#X msg 1022 505 \$1;
#X floatatom 847 526 5 0 0 0 - - -, f 5;
#X floatatom 838 563 5 0 0 0 - - -, f 5;
#X obj 330 269 tgl 15 0 empty empty empty 17 7 0 10 -262144 -1 -1 0
1;
#X text 610 58 Calibrate on/off mechanism;
#X obj 731 98 r \$0-calib;
#X obj 518 167 s \$0-calib;
#X obj 731 120 t b b;
#X obj 555 30 bng 15 250 50 0 empty empty empty 17 7 0 10 -262144 -1
-1;
#X obj 555 8 r \$0-th-click;
#X obj 804 326 s \$0-th-click;
#X obj 1086 147 vradio 15 1 0 2 empty \$0-cal-switch empty 0 -8 0 10
-262144 -1 -1 0;
#X text 322 46 calibrar;
#X text 1104 162 calibrate;
#X obj 626 374 s \$0-th-amplitud;
#X obj 268 567 s \$0-th-frequ;
#X obj 222 580 r \$0-th-frequ;
#X connect 1 0 4 0;
#X connect 1 1 2 0;
#X connect 1 2 3 0;
#X connect 2 0 15 1;
#X connect 2 0 20 0;
#X connect 3 0 17 1;
#X connect 3 0 19 0;
#X connect 4 0 7 0;
#X connect 5 0 6 0;
#X connect 6 0 1 0;
#X connect 7 0 8 0;
#X connect 8 0 57 0;
#X connect 9 0 14 0;
#X connect 10 0 11 1;
#X connect 11 0 12 0;
#X connect 12 0 13 0;
#X connect 12 0 87 0;
#X connect 13 0 9 0;
#X connect 14 0 10 0;
#X connect 15 0 16 0;
#X connect 16 0 20 1;
#X connect 17 0 18 0;
#X connect 18 0 19 1;
#X connect 19 0 21 0;
#X connect 20 0 22 0;
#X connect 21 0 25 0;
#X connect 22 0 23 0;
#X connect 23 0 24 0;
#X connect 24 0 30 1;
#X connect 24 0 41 1;
#X connect 25 0 26 0;
#X connect 26 0 29 1;
#X connect 26 0 40 1;
#X connect 27 0 28 0;
#X connect 28 0 5 0;
#X connect 29 0 66 0;
#X connect 30 0 65 0;
#X connect 31 0 33 0;
#X connect 32 0 31 1;
#X connect 33 0 77 0;
#X connect 33 1 79 0;
#X connect 34 0 48 0;
#X connect 35 0 79 1;
#X connect 36 0 77 1;
#X connect 37 0 38 0;
#X connect 38 0 39 0;
#X connect 38 0 75 0;
#X connect 39 0 35 0;
#X connect 39 0 36 0;
#X connect 40 0 42 0;
#X connect 41 0 43 0;
#X connect 42 0 44 0;
#X connect 42 1 80 0;
#X connect 43 0 45 0;
#X connect 43 1 81 0;
#X connect 44 0 36 0;
#X connect 45 0 35 0;
#X connect 46 0 53 0;
#X connect 46 0 83 0;
#X connect 47 0 78 0;
#X connect 48 0 53 1;
#X connect 49 0 46 0;
#X connect 49 1 48 0;
#X connect 50 0 51 0;
#X connect 50 1 52 0;
#X connect 53 0 50 0;
#X connect 53 0 58 0;
#X connect 54 0 55 0;
#X connect 54 1 56 0;
#X connect 55 0 32 0;
#X connect 56 0 32 0;
#X connect 57 0 91 0;
#X connect 57 1 31 0;
#X connect 60 0 61 0;
#X connect 61 0 47 0;
#X connect 63 0 65 1;
#X connect 64 0 66 1;
#X connect 65 0 34 0;
#X connect 66 0 76 0;
#X connect 67 0 68 0;
#X connect 68 0 69 0;
#X connect 69 0 62 0;
#X connect 75 0 74 0;
#X connect 76 0 46 0;
#X connect 77 0 40 0;
#X connect 77 1 29 0;
#X connect 78 0 49 0;
#X connect 79 0 41 0;
#X connect 79 1 30 0;
#X connect 80 0 76 0;
#X connect 80 0 82 0;
#X connect 81 0 34 0;
#X connect 84 0 32 0;
#X connect 86 0 88 0;
#X connect 88 0 15 0;
#X connect 88 1 17 0;
#X connect 89 0 11 0;
#X connect 90 0 89 0;
#X connect 92 0 54 0;
#X coords 0 -1 1 1 377 340 2 0 0;
