#N canvas 177 22 828 658 10;
#X floatatom 406 435 5 0 0 0 - - -, f 5;
#X obj 406 302 vsl 15 128 0.1 20 0 0 empty \$0-wah-q empty 0 -9 0 10
-262144 -1 -1 0 1;
#X obj 381 123 +~ 1;
#X obj 382 144 *~ 0.5;
#X obj 381 102 osc~ 2;
#X obj 483 179 hsl 128 15 700 6000 0 0 empty \$0-wah-max empty -2 -8
0 10 -262144 -1 -1 0 1;
#X obj 437 252 hsl 128 15 0 700 0 0 empty \$0-wah-min empty -2 -8 0
10 -262144 -1 -1 0 1;
#X floatatom 434 271 6 0 0 0 - - -, f 6;
#X floatatom 435 213 6 0 0 0 - - -, f 6;
#X obj 435 194 -;
#X obj 435 172 bang;
#X obj 338 278 +~ 200;
#X obj 338 196 *~ 1500;
#X text 432 119 <-- LFO (Low-Frequency Oscillator;
#X text 616 177 <-- Maximum of the freq. range;
#X text 569 250 <-- Minimum of the freq. range;
#X text 443 392 <-- "Q";
#X text 371 461 <-- Voltage-Controlled band-pass filter;
#X obj 386 73 hsl 128 15 0.5 4 0 0 empty \$0-wah-lfo empty -2 -8 0
10 -262144 -1 -1 0 1;
#X text 471 533 Pierre Massat \, GuitarExtended \, 2012.s;
#X text 148 122 WAH-WAH;
#X obj 316 461 vcf~ 5.3;
#X obj 117 167 hsl 100 20 0.5 4 0 0 \$0-wah-lfo empty LFO_frequency
4 10 0 10 -262144 -1 -1 0 1;
#X obj 117 142 hsl 100 20 0.1 20 0 0 \$0-wah-q empty Q 4 10 0 10 -262144
-1 -1 0 1;
#X obj 316 57 inlet~;
#X obj 117 193 hsl 100 20 700 6000 0 0 \$0-wah-max empty max_freq_range
4 10 0 10 -262144 -1 -1 0 1;
#X obj 117 242 hsl 100 20 0 1 0 0 \$0-wah-drywet empty Dry----------Wet
4 10 0 10 -262144 -1 -1 0 1;
#X obj 250 588 outlet~;
#X text 101 277 signal;
#X text 102 100 signal;
#X text 315 40 signal;
#X obj 250 527 drywet~;
#X obj 117 218 hsl 100 20 0 700 0 0 \$0-wah-min empty min_freq_range
4 10 0 10 -262144 -1 -1 0 1;
#X obj 291 92 s~ \$0-inlet;
#X obj 240 501 r~ \$0-inlet;
#X obj 32 203 loadbang;
#X msg 32 225 0;
#X obj 382 506 r \$0-wah-drywet;
#X connect 1 0 0 0;
#X connect 1 0 21 2;
#X connect 2 0 3 0;
#X connect 3 0 12 0;
#X connect 4 0 2 0;
#X connect 5 0 9 0;
#X connect 6 0 7 0;
#X connect 6 0 9 1;
#X connect 6 0 10 0;
#X connect 6 0 11 1;
#X connect 9 0 8 0;
#X connect 9 0 12 1;
#X connect 10 0 9 0;
#X connect 11 0 21 1;
#X connect 12 0 11 0;
#X connect 18 0 4 0;
#X connect 21 0 31 1;
#X connect 24 0 21 0;
#X connect 24 0 33 0;
#X connect 31 0 27 0;
#X connect 34 0 31 0;
#X connect 35 0 36 0;
#X connect 36 0 26 0;
#X connect 37 0 31 2;
#X coords 0 -1 1 1 150 195 2 100 100;
