#N canvas 0 22 1276 737 10;
#X obj 64 16 abs/midi_reader;
#X obj 64 135 abs/fm;
#X obj 71 476 abs/adsr~;
#X obj 219 484 abs/master;
#X obj 405 7 abs/midi_reader;
#X obj 355 122 abs/vco~;
#X obj 349 487 abs/env_generator~;
#X obj 553 491 abs/reverb;
#X obj 683 491 abs/master;
#X obj 779 39 abs/formant~;
#X obj 779 464 abs/ringmod~;
#X obj 779 614 abs/ringmod~;
#X text 608 1126 comment;
#X obj 976 489 abs/master;
#X obj 58 726 abs/keycontrol;
#X obj 62 886 abs/chebyshev~;
#X obj 167 891 abs/adsr~;
#X obj 316 865 abs/master;
#X connect 0 0 1 0;
#X connect 0 1 1 1;
#X connect 1 0 2 0;
#X connect 1 1 2 1;
#X connect 1 2 2 2;
#X connect 2 0 3 0;
#X connect 4 0 5 0;
#X connect 4 1 5 3;
#X connect 5 0 6 0;
#X connect 5 1 6 1;
#X connect 5 2 6 2;
#X connect 6 0 7 0;
#X connect 6 1 7 1;
#X connect 7 0 8 0;
#X connect 7 1 8 0;
#X connect 9 0 10 0;
#X connect 10 0 11 0;
#X connect 11 0 13 0;
#X connect 14 0 15 0;
#X connect 14 1 15 1;
#X connect 15 0 16 0;
#X connect 15 1 16 1;
#X connect 15 2 16 2;
#X connect 16 0 17 0;
