#N canvas 24 22 1280 675 10;
#X obj 539 -256 abs/fm;
#X obj 23 -207 abs/midi_reader;
#X obj 38 98 abs/adsr~;
#X obj 1159 175 abs/reverb;
#X obj 997 194 abs/wahwah;
#X obj 466 68 abs/fir~;
#X obj 1058 -256 abs/formant~;
#X obj 449 -256 abs/chebyshev~;
#X obj 803 125 abs/ringmod~;
#X obj 185 124 abs/env_generator~;
#X text 117 -231 CONTROL;
#X text 878 -272 SYNTHESIS;
#X text 162 81 ENVELOPE;
#X obj 796 -256 abs/vco~;
#X obj 18 -91 abs/keycontrol;
#X obj 301 -118 abs/master;
#X obj 803 273 abs/ringmod~;
#X obj 27 352 abs/theremin;
#X obj 27 697 unpack f f;
#X text 681 739 comment;
#X floatatom 27 719 10 0 0 0 - - -, f 10;
#X floatatom 94 718 10 0 0 0 - - -, f 10;
#X connect 8 0 16 0;
#X connect 17 0 18 0;
#X connect 18 0 20 0;
#X connect 18 1 21 0;
#X coords 0 675 1 674 85 60 0;
