#N canvas 1 22 878 752 10;
#X obj 34 111 abs/adsr~;
#X obj 467 145 abs/fir~;
#X obj 1058 -179 abs/formant~;
#X obj 449 -179 abs/chebyshev~;
#X obj 803 202 abs/ringmod~;
#X obj 177 177 abs/env_generator~;
#X text 117 -193 CONTROL;
#X text 878 -195 SYNTHESIS;
#X text 158 94 ENVELOPE;
#X obj 796 -179 abs/vco~;
#X obj 27 774 unpack f f;
#X text 681 816 comment;
#X floatatom 27 796 10 0 0 0 - - -, f 10;
#X floatatom 94 795 10 0 0 0 - - -, f 10;
#X obj 27 429 abs/theremin~;
#X obj 18 -53 abs/keycontrol~;
#X obj 301 -80 abs/master~;
#X obj 539 -179 abs/fm~;
#X obj 997 271 abs/wahwah~;
#X obj 1159 252 abs/reverb~;
#X obj 23 -169 abs/midi_reader~;
#X obj 803 388 abs/ringmod~;
#X connect 4 0 21 0;
#X connect 10 0 12 0;
#X connect 10 1 13 0;
#X connect 14 0 10 0;
#X coords 0 752 1 751 85 60 0;
