#N canvas 0 22 1208 752 10;
#X obj 71 476 abs/adsr~;
#X obj 462 131 abs/vco~;
#X obj 349 487 abs/env_generator~;
#X obj 779 39 abs/formant~;
#X obj 779 464 abs/ringmod~;
#X obj 779 614 abs/ringmod~;
#X text 608 1126 comment;
#X obj 62 886 abs/chebyshev~;
#X obj 167 891 abs/adsr~;
#X obj 64 16 abs/midi_reader~;
#X obj 64 135 abs/fm~;
#X obj 219 484 abs/master~;
#X obj 214 12 abs/keycontrol~;
#X obj 513 17 abs/midi_reader~;
#X obj 316 865 abs/master~;
#X obj 58 726 abs/keycontrol~;
#X obj 683 491 abs/master~;
#X obj 553 491 abs/reverb~;
#X obj 976 489 abs/master~;
#X obj 380 331 bng 15 250 50 0 empty empty empty 17 7 0 10 -262144
-1 -1;
#X obj 37 37;
#X obj 37 37 a;
#X obj 1142 234 abs/0test;
#X floatatom 1145 177 5 0 0 0 - - -, f 5;
#X floatatom 1142 256 5 0 0 0 - - -, f 5;
#X obj 1242 233 abs/0test;
#X floatatom 1245 176 5 0 0 0 - - -, f 5;
#X floatatom 1242 255 5 0 0 0 - - -, f 5;
#X connect 0 0 11 0;
#X connect 1 0 2 0;
#X connect 1 1 2 1;
#X connect 1 2 2 2;
#X connect 2 0 17 0;
#X connect 2 1 17 1;
#X connect 3 0 4 0;
#X connect 4 0 5 0;
#X connect 5 0 18 0;
#X connect 7 0 8 0;
#X connect 7 1 8 1;
#X connect 7 2 8 2;
#X connect 8 0 14 0;
#X connect 9 0 10 0;
#X connect 9 1 10 1;
#X connect 10 0 0 0;
#X connect 10 1 0 1;
#X connect 10 2 0 2;
#X connect 12 0 1 0;
#X connect 12 1 1 3;
#X connect 13 0 1 0;
#X connect 13 1 1 3;
#X connect 15 0 7 0;
#X connect 15 1 7 1;
#X connect 17 0 16 0;
#X connect 17 1 16 0;
#X connect 19 0 2 2;
#X connect 22 0 24 0;
#X connect 23 0 22 0;
#X connect 25 0 27 0;
#X connect 26 0 25 0;
