#N canvas 536 140 787 595 10;
#X obj 52 27 abs/midi_reader;
#X obj 364 60 abs/fm;
#X obj 414 325 abs/adsr~;
#X obj 352 359 dac~;
#X connect 0 0 1 1;
#X connect 0 1 1 0;
#X connect 1 1 3 0;
#X connect 1 1 3 1;
